<?xml version="1.0" encoding="UTF-8"?>
<svg version="1.1" xmlns="http://www.w3.org/2000/svg" width="1280" height="465">
<path d="M0 0 C1.03728241 -0.00101212 1.03728241 -0.00101212 2.09552002 -0.00204468 C13.37087237 0.01540438 24.24792837 0.63779746 35.25 3.25 C35.99942871 3.42692383 36.74885742 3.60384766 37.52099609 3.78613281 C46.56583371 6.00659539 54.64491658 8.69685418 62.25 14.25 C62.89195312 14.67667969 63.53390625 15.10335937 64.1953125 15.54296875 C70.28042236 20.03435936 74.25464809 26.74432961 75.60009766 34.18652344 C76.91251315 45.64183844 73.96403862 55.88155754 69.25 66.25 C68.59 66.91 67.93 67.57 67.25 68.25 C66.26 68.25 65.27 68.25 64.25 68.25 C64.25 67.59 64.25 66.93 64.25 66.25 C63.445625 66.023125 62.64125 65.79625 61.8125 65.5625 C56.62137267 63.64997941 51.95356514 60.89519274 47.234375 58.0234375 C28.23632705 46.78413432 4.29721443 41.81556194 -17.3125 47 C-18.29500732 47.23505249 -18.29500732 47.23505249 -19.29736328 47.47485352 C-23.73953139 48.66985285 -27.00588587 50.63296868 -30.75 53.25 C-31.41 53.25 -32.07 53.25 -32.75 53.25 C-33.018125 53.9925 -33.28625 54.735 -33.5625 55.5 C-34.75 58.25 -34.75 58.25 -36.3125 60.25 C-39.86949745 65.19886601 -39.19691541 72.42413839 -38.75 78.25 C-37.33510321 85.01237434 -34.81988339 90.07309282 -29.05078125 94.1640625 C-23.05147962 97.59895677 -17.41575062 100.43206801 -10.75 102.25 C-8.56239619 102.87463656 -6.37490671 103.49967356 -4.1875 104.125 C-2.99511719 104.46015625 -1.80273438 104.7953125 -0.57421875 105.140625 C3.47524386 106.31534143 7.48530573 107.58808113 11.5 108.875 C16.59633865 110.50343379 21.62743073 111.79136542 26.89453125 112.7265625 C30.57638028 113.54475117 34.02495414 114.91066431 37.54296875 116.25390625 C40.03263877 117.17001859 42.50714613 117.91819999 45.0625 118.625 C56.07920775 121.86006497 70.21571877 126.71083225 78.25 135.25 C79.47406958 136.29765157 80.70365919 137.33887405 81.9375 138.375 C90.69461248 146.00320295 97.79270118 154.19841869 100.9375 165.5 C101.25883911 166.62825195 101.25883911 166.62825195 101.58666992 167.77929688 C103.09603622 173.2618914 104.10621596 178.54998984 104.25 184.25 C104.30800781 185.27673828 104.30800781 185.27673828 104.3671875 186.32421875 C104.86622892 201.32318581 101.16572696 216.00325768 94.25 229.25 C93.59 229.25 92.93 229.25 92.25 229.25 C92.19714844 229.94351563 92.14429688 230.63703125 92.08984375 231.3515625 C90.94893381 235.28902843 88.57867771 237.72511874 85.8125 240.625 C85.27262451 241.19863281 84.73274902 241.77226562 84.17651367 242.36328125 C79.6419809 247.06645092 74.85074686 250.86894713 69.25 254.25 C68.58226562 254.68441406 67.91453125 255.11882812 67.2265625 255.56640625 C37.99476103 273.43028493 -2.64710182 271.26686457 -34.57714844 263.56835938 C-47.85556628 260.03588178 -64.60794593 255.29994255 -72 242.75 C-72.5775 241.595 -73.155 240.44 -73.75 239.25 C-74.5853125 237.703125 -74.5853125 237.703125 -75.4375 236.125 C-81.10053268 223.72026175 -76.28854049 210.20344544 -72.0078125 198.11328125 C-70.75 196.25 -70.75 196.25 -68.55078125 195.18359375 C-64.41023414 195.28176572 -61.9415471 197.53448603 -58.8125 200 C-54.58732096 203.24098241 -50.59900597 205.9736786 -45.75 208.25 C-44.63367188 208.85457031 -43.51734375 209.45914063 -42.3671875 210.08203125 C-25.927602 218.8699616 -9.29474945 223.42273598 9.3125 223.5625 C10.57255859 223.59150391 11.83261719 223.62050781 13.13085938 223.65039062 C20.59153599 223.70051403 26.68792883 222.91375761 33.66186523 220.21166992 C36.18722292 219.273326 38.59950008 218.70605465 41.25 218.25 C41.58 217.26 41.91 216.27 42.25 215.25 C43.013125 214.651875 43.77625 214.05375 44.5625 213.4375 C48.61757406 210.13685832 51.30192886 206.4147304 52.25 201.25 C52.88557261 192.78959081 52.77280099 186.51389249 48.25 179.25 C47.92 178.26 47.59 177.27 47.25 176.25 C45.45067421 175.18283296 45.45067421 175.18283296 43.25 174.25 C42.54875 173.816875 41.8475 173.38375 41.125 172.9375 C27.45655074 164.91471457 12.7029807 160.38097119 -2.6328125 156.75634766 C-45.70474981 146.45524088 -45.70474981 146.45524088 -62.75 134.25 C-63.57371094 133.72664062 -64.39742187 133.20328125 -65.24609375 132.6640625 C-78.02813559 124.37616322 -85.15921222 111.681807 -88.91796875 97.1328125 C-92.2063553 81.02006312 -91.47492798 62.32779241 -84.75 47.25 C-84.41613281 46.45335937 -84.08226563 45.65671875 -83.73828125 44.8359375 C-81.39468427 39.71364536 -78.29261 34.62259292 -74.75 30.25 C-74.09 30.25 -73.43 30.25 -72.75 30.25 C-72.5025 29.445625 -72.255 28.64125 -72 27.8125 C-71.5875 26.966875 -71.175 26.12125 -70.75 25.25 C-69.42696283 24.8778958 -68.09262065 24.54369827 -66.75 24.25 C-66.48574219 23.66476563 -66.22148437 23.07953125 -65.94921875 22.4765625 C-62.40937013 15.90420513 -53.54503971 11.78148538 -46.75 9.25 C-45.45835937 8.55197266 -45.45835937 8.55197266 -44.140625 7.83984375 C-39.95894754 5.87908024 -35.77758439 4.75610817 -31.3125 3.625 C-30.49201172 3.4084375 -29.67152344 3.191875 -28.82617188 2.96875 C-19.19302662 0.47781699 -9.91932626 0.0086746 0 0 Z " fill="#40ABDC" transform="translate(198.75,99.75)"/>
<path d="M0 0 C1.56233028 1.56233028 1.1407528 3.08509895 1.15821838 5.25831604 C1.1680072 6.1768335 1.17779602 7.09535095 1.18788147 8.04170227 C1.19651466 9.56515511 1.19651466 9.56515511 1.20532227 11.11938477 C1.21522186 12.18266998 1.22512146 13.2459552 1.23532104 14.34146118 C1.26704335 17.87475314 1.29173573 21.40805858 1.31640625 24.94140625 C1.33696652 27.38378764 1.35796273 29.8261654 1.37937927 32.26853943 C1.4346957 38.71130439 1.48406263 45.15410196 1.53222656 51.59692383 C1.58237189 58.16555703 1.63809424 64.7341426 1.69335938 71.30273438 C1.80105794 84.20178199 1.90266597 97.10087023 2 110 C2.95835828 108.73407645 3.91506958 107.46690595 4.87109375 106.19921875 C5.40404053 105.49369873 5.9369873 104.78817871 6.48608398 104.0612793 C7.73932592 102.35492199 8.91236242 100.58998535 10.0625 98.8125 C12.12273729 95.82183297 14.37177321 93.5000206 17 91 C17.825 90.13375 18.65 89.2675 19.5 88.375 C21.8911595 86.10339848 24.17636892 84.66521833 27 83 C27.56847656 82.38511719 28.13695312 81.77023438 28.72265625 81.13671875 C39.42648777 71.09384424 55.69973102 69.54022674 69.63671875 69.8125 C79.43226541 70.35859319 88.28929266 71.33477927 97 76 C97.67289063 76.29777344 98.34578125 76.59554687 99.0390625 76.90234375 C112.50435418 82.95912553 121.22688318 95.32378106 126.453125 108.7265625 C130.28875385 119.5261413 131.14790456 129.28002403 131.17700195 140.66674805 C131.18357315 141.79959229 131.19014435 142.93243652 131.19691467 144.09960938 C131.21650769 147.8203133 131.2282732 151.54097731 131.23828125 155.26171875 C131.24235678 156.53678598 131.2464323 157.81185322 131.25063133 159.12555885 C131.2692875 165.17076451 131.28387404 171.21594625 131.2922433 177.26117295 C131.30203957 184.21939764 131.32844648 191.17730628 131.36874419 198.13541955 C131.40255566 204.18225988 131.41438834 210.22894649 131.41844749 216.27588844 C131.42332103 218.84154226 131.43495667 221.4071925 131.45348549 223.97278404 C131.47777424 227.55592719 131.47693126 231.13823567 131.4699707 234.72143555 C131.48918579 236.30892357 131.48918579 236.30892357 131.50878906 237.92848206 C131.46607122 243.95550813 131.0037522 247.40319777 127 252 C115.20399223 262.87631903 97.01318354 270.2016027 81 270 C80.99503478 269.10438166 80.99503478 269.10438166 80.98996925 268.19067001 C80.90850234 253.61565999 80.81633384 239.04074427 80.71247292 224.46587753 C80.66249916 217.41737759 80.61605548 210.36888839 80.578125 203.3203125 C80.541478 196.51213154 80.49472518 189.7040784 80.44193649 182.89600372 C80.42347069 180.30465084 80.40833423 177.71327193 80.39665604 175.12187958 C80.37965942 171.47923942 80.3505926 167.83687348 80.31884766 164.19433594 C80.31668747 163.1340921 80.31452728 162.07384827 80.31230164 160.98147583 C80.15308011 146.58517829 77.93713282 134.6871217 67.625 124.0625 C60.28053133 117.86247955 48.9695966 115.05183302 39.40234375 115.62109375 C29.20600461 117.22929683 20.46895677 119.45529316 13 127 C12.03126953 127.90105469 12.03126953 127.90105469 11.04296875 128.8203125 C0.6168661 140.01465429 1.42317585 158.81125955 1.48357964 173.1281662 C1.49643053 176.18960625 1.48472663 179.25017374 1.46754456 182.31158447 C1.44111787 187.69479755 1.43523948 193.07778865 1.43664551 198.46105957 C1.43889422 207.11633913 1.42471489 215.77134836 1.38105965 224.4265213 C1.37125617 227.43453983 1.37991151 230.44212502 1.38975525 233.45013428 C1.38361274 235.29195438 1.37670158 237.13377213 1.36889648 238.97558594 C1.37661575 239.8047049 1.38433502 240.63382385 1.39228821 241.48806763 C1.34306717 247.11973229 0.27587986 251.190914 -3.3671875 255.6875 C-14.36080622 265.25707485 -33.35673762 271.75795237 -48 271 C-49.89345477 269.10654523 -49.13109269 266.33211857 -49.1430676 263.81167918 C-49.14220112 262.9136598 -49.14133463 262.01564042 -49.14044189 261.09040833 C-49.14341302 260.14388057 -49.14638414 259.19735281 -49.1494453 258.2221424 C-49.1581739 255.02414412 -49.15964409 251.8261831 -49.16113281 248.62817383 C-49.16575837 246.34535135 -49.17078267 244.06252965 -49.17617798 241.77970886 C-49.18933684 235.55588634 -49.19575472 229.33207463 -49.20018864 223.10824037 C-49.2031162 219.21871625 -49.2072206 215.3291951 -49.21169281 211.43967247 C-49.22381182 200.66438409 -49.23418824 189.8890996 -49.2375679 179.11380482 C-49.23778747 178.42344078 -49.23800703 177.73307674 -49.23823325 177.02179257 C-49.23845153 176.32977927 -49.23866981 175.63776597 -49.2388947 174.92478257 C-49.23933816 173.52252757 -49.23978473 172.12027258 -49.24023438 170.71801758 C-49.2404558 170.02245157 -49.24067723 169.32688556 -49.24090537 168.61024179 C-49.24484377 157.36797714 -49.26226429 146.12577769 -49.2855939 134.88353816 C-49.30936984 123.33244676 -49.32151538 111.78139724 -49.32293582 100.2302801 C-49.32398208 93.74864907 -49.32985075 87.26710974 -49.34775543 80.78550148 C-49.36429609 74.67800313 -49.36636251 68.57066476 -49.35761642 62.46315193 C-49.35684902 60.22918518 -49.3611493 57.99520963 -49.37107468 55.7612648 C-49.50009122 24.89499227 -49.50009122 24.89499227 -39.9375 13.79296875 C-38 12 -38 12 -35 11 C-34.67 10.01 -34.34 9.02 -34 8 C-23.6882858 1.62813887 -12.00745947 -0.69273805 0 0 Z " fill="#7FCBEB" transform="translate(378,93)"/>
<path d="M0 0 C2.99052284 0.00316406 5.98005739 -0.02038883 8.97045898 -0.0456543 C33.58300787 -0.12673465 56.48982462 5.49836055 74.53100586 23.25317383 C88.44162381 38.38402143 92.88590099 57.99376949 92.83691406 78.06347656 C92.84202499 79.16910446 92.84713593 80.27473236 92.85240173 81.41386414 C92.86617117 85.02572207 92.86535187 88.63738672 92.86303711 92.24926758 C92.86692832 94.77604746 92.87126387 97.3028267 92.87602234 99.8296051 C92.88345527 105.10386784 92.88335248 110.37808121 92.87792969 115.65234375 C92.87186626 121.74080733 92.88427523 127.8290412 92.90549976 133.91746563 C92.92524175 139.79825617 92.92829043 145.67897544 92.92476463 151.5598011 C92.92527809 154.05369674 92.93052039 156.54759606 92.94057655 159.04147148 C92.95289006 162.51904076 92.94618167 165.99607238 92.93457031 169.47363281 C92.94221405 170.50278809 92.94985779 171.53194336 92.95773315 172.59228516 C92.89346368 181.28527333 92.89346368 181.28527333 89.56225586 185.31567383 C82.40489207 192.05201622 73.94856824 195.14749494 64.49975586 197.12817383 C63.08726562 197.45205078 63.08726562 197.45205078 61.64624023 197.7824707 C55.95523364 199.02997737 51.60180184 199.31567383 45.56225586 199.31567383 C45.23225586 191.06567383 44.90225586 182.81567383 44.56225586 174.31567383 C43.90225586 174.31567383 43.24225586 174.31567383 42.56225586 174.31567383 C41.75788086 175.28504883 40.95350586 176.25442383 40.12475586 177.25317383 C33.4312863 185.29836595 24.73783579 191.40395124 15.56225586 196.31567383 C14.8700293 196.6946582 14.17780273 197.07364258 13.46459961 197.46411133 C-4.36714254 206.32998686 -29.85675253 206.2161515 -48.54858398 200.00463867 C-57.91981194 196.5870107 -66.79681969 191.95800752 -73.43774414 184.31567383 C-73.43774414 183.65567383 -73.43774414 182.99567383 -73.43774414 182.31567383 C-74.03586914 182.07075195 -74.63399414 181.82583008 -75.25024414 181.57348633 C-81.52713763 177.96427257 -83.9273963 169.56177749 -85.81274414 163.00317383 C-90.17866856 144.96329589 -88.46881514 125.61662844 -78.92602539 109.53833008 C-77.0091663 106.67561926 -75.08118449 104.53856685 -72.43774414 102.31567383 C-71.74036133 101.70208008 -71.04297852 101.08848633 -70.32446289 100.45629883 C-52.85244867 85.63155949 -31.56910577 81.91173715 -9.25024414 82.00317383 C-8.23900482 82.00441254 -8.23900482 82.00441254 -7.20733643 82.00567627 C5.31687576 82.04089309 17.85537071 82.48186318 29.56225586 87.31567383 C31.59467018 87.89108463 33.63712165 88.43199391 35.68725586 88.94067383 C36.72108398 89.20106445 37.75491211 89.46145508 38.82006836 89.72973633 C41.58386998 90.42015295 41.58386998 90.42015295 44.56225586 90.31567383 C44.85144441 78.87666 44.20228602 69.49181366 38.56225586 59.31567383 C38.0247168 58.79618164 37.48717773 58.27668945 36.93334961 57.74145508 C35.56225586 56.31567383 35.56225586 56.31567383 35.56225586 53.31567383 C34.81975586 53.04754883 34.07725586 52.77942383 33.31225586 52.50317383 C30.56225586 51.31567383 30.56225586 51.31567383 28.82006836 49.90551758 C25.92837447 47.86932482 23.02170112 46.85952238 19.68725586 45.69067383 C18.49358398 45.2652832 17.29991211 44.83989258 16.07006836 44.40161133 C-4.92740192 37.90128089 -28.91346303 43.37253498 -49.43774414 49.31567383 C-50.74620345 49.68984218 -52.05479512 50.06354804 -53.36352539 50.43676758 C-54.37801758 50.72680664 -55.39250977 51.0168457 -56.43774414 51.31567383 C-59.23513604 45.75799072 -59.95316187 41.31858135 -59.87524414 35.12817383 C-59.86497192 33.87677612 -59.86497192 33.87677612 -59.85449219 32.60009766 C-59.62576313 23.73449067 -57.99165874 15.50867283 -51.99707031 8.64306641 C-49.06100573 6.14371098 -45.6241734 5.43712564 -41.93774414 4.56567383 C-41.21071289 4.37102539 -40.48368164 4.17637695 -39.73461914 3.97583008 C-37.31298897 3.35372164 -34.8862132 2.82187987 -32.43774414 2.31567383 C-31.54563232 2.12658447 -30.65352051 1.93749512 -29.734375 1.74267578 C-19.86793464 -0.06712556 -9.9959087 -0.02209131 0 0 Z M-32.87524414 121.69067383 C-33.75817483 122.87815163 -34.6138705 124.08648614 -35.43774414 125.31567383 C-35.84895508 125.85192383 -36.26016602 126.38817383 -36.68383789 126.94067383 C-40.95235776 133.55761812 -40.67906023 142.74902657 -39.43774414 150.31567383 C-36.40042726 158.44882136 -30.41455056 164.83639825 -22.62524414 168.62817383 C-10.33014304 173.98801123 6.00828745 173.46938805 18.43725586 168.75317383 C30.2824939 163.75924064 38.92369354 157.06451169 43.87475586 145.06567383 C45.54295093 140.64530882 46.69381578 136.73406214 46.65991211 131.98754883 C46.65668945 131.18833008 46.6534668 130.38911133 46.65014648 129.56567383 C46.64176758 128.74067383 46.63338867 127.91567383 46.62475586 127.06567383 C46.62024414 126.22520508 46.61573242 125.38473633 46.61108398 124.51879883 C46.59933547 122.45105981 46.58140108 120.38335759 46.56225586 118.31567383 C38.12500016 113.87778258 29.89051364 111.86514874 20.56225586 110.31567383 C19.60963867 110.13004883 18.65702148 109.94442383 17.67553711 109.75317383 C0.82133471 107.38470373 -20.65684656 108.34489293 -32.87524414 121.69067383 Z " fill="#40ACDC" transform="translate(616.437744140625,164.684326171875)"/>
<path d="M0 0 C6.11374875 0 9.96435813 0.03073625 15.57421875 1.4453125 C18.24858674 2.0568427 20.90534657 2.39320477 23.625 2.75 C32.53765138 4.21446647 43.15858324 6.92124274 48.97129822 14.2052002 C50.85385773 17.48974534 50.61436789 20.7648399 50.48828125 24.4609375 C50.48120651 25.25150543 50.47413177 26.04207336 50.46684265 26.8565979 C50.43901463 29.36372433 50.37630474 31.86855712 50.3125 34.375 C50.28740184 36.08199883 50.26459133 37.78903292 50.24414062 39.49609375 C50.18922691 43.66493648 50.10304076 47.83208038 50 52 C50.58659897 51.99777939 51.17319794 51.99555878 51.77757263 51.99327087 C57.86025384 51.9712179 63.94292377 51.95609336 70.02563477 51.94506836 C72.29842591 51.94002675 74.5712138 51.93319363 76.84399414 51.92456055 C80.10303551 51.91248739 83.36203417 51.90677013 86.62109375 51.90234375 C87.64400009 51.89718246 88.66690643 51.89202118 89.72080994 51.88670349 C90.66170975 51.88662796 91.60260956 51.88655243 92.57202148 51.88647461 C93.40475082 51.884254 94.23748016 51.88203339 95.09544373 51.87974548 C97 52 97 52 98 53 C98.10109386 55.86095624 98.13969428 58.69726057 98.1328125 61.55859375 C98.13376923 62.41808121 98.13472595 63.27756866 98.13571167 64.1631012 C98.13639357 65.98479282 98.13453861 67.80648685 98.13037109 69.62817383 C98.12502946 72.4220932 98.13031239 75.21585133 98.13671875 78.00976562 C98.13605784 79.77604202 98.13477642 81.54231832 98.1328125 83.30859375 C98.13483673 84.14821152 98.13686096 84.98782928 98.13894653 85.85289001 C98.11495472 91.77009055 98.11495472 91.77009055 97 94 C81.49 94 65.98 94 50 94 C50.09085586 111.19836752 50.09085586 111.19836752 50.20898438 128.39648438 C50.26323816 135.41461141 50.3143512 142.43265977 50.34643555 149.45092773 C50.37251405 155.11151786 50.41294902 160.77184269 50.46318626 166.43226814 C50.47982417 168.58788812 50.49135755 170.74355395 50.49761391 172.89922905 C50.50728833 175.9271591 50.53538808 178.95441509 50.56762695 181.98217773 C50.56619186 182.86619263 50.56475677 183.75020752 50.5632782 184.66101074 C50.67336142 192.00939729 51.6161225 198.71274261 57 204 C57 204.66 57 205.32 57 206 C65.19991461 208.74223611 72.5785515 209.38418951 81.1875 209.1875 C82.33025391 209.17396484 83.47300781 209.16042969 84.65039062 209.14648438 C87.43410963 209.1115423 90.21678664 209.06249011 93 209 C96.47224501 216.9280318 97.53725419 223.57539853 97.25 232.1875 C97.23195313 233.23486328 97.21390625 234.28222656 97.1953125 235.36132812 C97.14878766 237.90856338 97.08345192 240.45375358 97 243 C77.28091981 255.02382939 52.46936904 255.52864868 30.4921875 250.328125 C21.31805473 247.84035433 14.5364016 242.6125522 9 235 C8.50757813 234.41347656 8.01515625 233.82695312 7.5078125 233.22265625 C5.55014674 230.33687434 4.52757638 227.41302465 3.375 224.125 C2.94960938 222.93132812 2.52421875 221.73765625 2.0859375 220.5078125 C-0.08627768 213.49108865 -0.13793983 206.86140084 -0.11352539 199.57861328 C-0.11367142 198.43656937 -0.11381744 197.29452545 -0.1139679 196.11787415 C-0.11327256 192.35200078 -0.10549784 188.5861772 -0.09765625 184.8203125 C-0.09579073 182.20571927 -0.09436746 179.59112569 -0.09336853 176.97653198 C-0.09026557 170.80372016 -0.08206618 164.63092613 -0.07201904 158.45812213 C-0.06082571 151.42788949 -0.05533935 144.39765597 -0.05032361 137.36741662 C-0.03988267 122.91160192 -0.02230333 108.45580121 0 94 C-1.08269165 94.00785522 -1.08269165 94.00785522 -2.18725586 94.01586914 C-5.43732849 94.03657358 -8.68738728 94.04963918 -11.9375 94.0625 C-13.64196289 94.07506836 -13.64196289 94.07506836 -15.38085938 94.08789062 C-16.46044922 94.09111328 -17.54003906 94.09433594 -18.65234375 94.09765625 C-20.15269165 94.10551147 -20.15269165 94.10551147 -21.68334961 94.11352539 C-24 94 -24 94 -25 93 C-25.10110353 90.0546443 -25.13969279 87.1332244 -25.1328125 84.1875 C-25.13376923 83.30344482 -25.13472595 82.41938965 -25.13571167 81.50854492 C-25.13639351 79.63557871 -25.13453893 77.76261014 -25.13037109 75.88964844 C-25.12502289 73.01231612 -25.13031593 70.13513992 -25.13671875 67.2578125 C-25.13605797 65.44270799 -25.13477681 63.62760357 -25.1328125 61.8125 C-25.13483673 60.94584717 -25.13686096 60.07919434 -25.13894653 59.1862793 C-25.11495009 53.11495009 -25.11495009 53.11495009 -24 52 C-16.41 51.67 -8.82 51.34 -1 51 C-0.67 34.17 -0.34 17.34 0 0 Z " fill="#A2C75E" transform="translate(977,115)"/>
<path d="M0 0 C1.95234767 1.95234767 1.13138216 4.93522133 1.1430676 7.53503287 C1.14220112 8.48451847 1.14133463 9.43400407 1.14044189 10.41226196 C1.14341302 11.41273131 1.14638414 12.41320065 1.1494453 13.44398725 C1.15817407 16.82415733 1.15964407 20.20429217 1.16113281 23.58447266 C1.16575813 25.99687781 1.1707824 28.40928223 1.17617798 30.82168579 C1.18933382 37.39626624 1.19578983 43.97083931 1.20018864 50.54542971 C1.20294862 54.64998155 1.20718562 58.75453102 1.21169281 62.85908127 C1.22389029 74.22028518 1.23418731 85.5814872 1.2375679 96.94269753 C1.23789725 98.03430199 1.23789725 98.03430199 1.23823325 99.14795908 C1.23856067 100.24221041 1.23856067 100.24221041 1.2388947 101.35856783 C1.23933817 102.83686423 1.23978473 104.31516063 1.24023438 105.79345703 C1.2404558 106.52674659 1.24067723 107.26003615 1.24090537 108.0155466 C1.2448509 119.88979157 1.26229526 131.76397507 1.2855939 143.6381963 C1.30931382 155.82544796 1.32177011 168.01266879 1.32293582 180.1999439 C1.32385244 187.04408255 1.32960116 193.88814123 1.34775543 200.73225784 C1.36477682 207.17213131 1.36640414 213.61189351 1.35761642 220.05178452 C1.35684459 222.41608333 1.36120795 224.78039022 1.37107468 227.14466858 C1.38375298 230.37190614 1.3779393 233.59860257 1.36749268 236.82583618 C1.37554908 237.76193745 1.38360548 238.69803872 1.39190602 239.6625067 C1.3325621 247.49929532 -0.51459212 253.1328238 -6 259 C-16.90733349 267.4397728 -34.17543202 272.96278241 -48 272 C-50.61327241 269.38672759 -50.24153307 267.55603128 -50.26282471 263.99741155 C-50.25768115 263.14891958 -50.25253759 262.3004276 -50.24723816 261.42622375 C-50.24965257 260.52758816 -50.25206699 259.62895257 -50.25455457 258.7030856 C-50.26021886 255.67218313 -50.25150701 252.64148892 -50.24291992 249.6105957 C-50.24399235 247.44387759 -50.24593044 245.27715976 -50.24867249 243.11044312 C-50.25353866 237.20161567 -50.24583654 231.29286326 -50.23571944 225.38404489 C-50.22693561 219.18052522 -50.22869667 212.97700789 -50.2290802 206.77348328 C-50.22814163 196.32285362 -50.21949797 185.87225105 -50.20581055 175.42163086 C-50.1900923 163.41389037 -50.18480828 151.40618787 -50.1855461 139.39843494 C-50.18622815 126.55671626 -50.17923707 113.71500959 -50.1700995 100.87329459 C-50.16798889 97.21072387 -50.16726109 93.54815515 -50.16686058 89.88558388 C-50.16391133 77.74823892 -50.14051171 65.61167177 -50.04939801 53.4746322 C-50.01079208 48.12429286 -50.00440487 42.77597174 -50.03827995 37.42561346 C-50.0498966 34.48357175 -50.03011993 31.54244903 -49.99990141 28.60056722 C-49.98993588 26.69690405 -50.01922862 24.79315748 -50.05030346 22.88972187 C-49.91973061 15.09176984 -49.91973061 15.09176984 -47.27709007 11.954813 C-34.68151121 2.18857313 -15.55066352 -0.61531402 0 0 Z " fill="#5DAE22" transform="translate(788,93)"/>
<path d="M0 0 C1.60772892 -0.01027642 3.21547674 -0.01762553 4.82322693 -0.02372742 C6.16619418 -0.03033402 6.16619418 -0.03033402 7.53629208 -0.03707409 C11.88989004 0.02843923 15.87178384 1.09667645 20.0625 2.1875 C20.89587891 2.38408203 21.72925781 2.58066406 22.58789062 2.78320312 C33.13987476 5.45199289 42.66855783 10.7696045 48.69975662 20.0323925 C51.44140048 26.28977709 50.77418076 33.2842805 50.68115234 39.99438477 C50.67945783 41.70997559 50.68041393 43.42557075 50.68380737 45.14115906 C50.68552255 49.7772275 50.65035063 54.41235659 50.60836363 59.04820752 C50.57074946 63.90081799 50.56732286 68.75345215 50.56021118 73.60618591 C50.54159367 82.78591166 50.49239865 91.96520653 50.43211424 101.14474291 C50.36495264 111.59934708 50.33203586 122.05397229 50.30194163 132.50873864 C50.23929679 154.00606585 50.13382209 175.50300574 50 197 C47.92972865 197.02035962 45.85939902 197.03484649 43.7890625 197.046875 C42.63615723 197.05557617 41.48325195 197.06427734 40.29541016 197.07324219 C35.95046064 196.97667345 32.14032215 196.26449629 28 195 C27.12730469 194.74347656 26.25460937 194.48695313 25.35546875 194.22265625 C15.33222734 190.95634122 7.52985033 185.95340872 1.52445793 177.19374466 C-1.52806496 170.79869861 -0.90711159 163.82729457 -0.79467773 156.89208984 C-0.79270031 155.17635174 -0.79381722 153.46060772 -0.79777527 151.74487305 C-0.79977444 147.11285516 -0.75877275 142.48211974 -0.70975757 137.85039854 C-0.66584199 133.0004813 -0.66187417 128.15053096 -0.65357971 123.30044556 C-0.6318686 114.12776111 -0.57448762 104.95566434 -0.50413328 95.78323805 C-0.42574853 85.33588794 -0.38736784 74.88850898 -0.35226524 64.44093776 C-0.27920083 42.96029784 -0.15616572 21.48018602 0 0 Z " fill="#37A428" transform="translate(1121,167)"/>
<path d="M0 0 C24.44652728 -1.86456564 42.81162533 12.16430745 60.76171875 26.8984375 C61.50035156 27.59195312 62.23898437 28.28546875 63 29 C63 29.66 63 30.32 63 31 C64.0828125 31.3403125 64.0828125 31.3403125 65.1875 31.6875 C68.58568303 33.27331875 70.45230999 35.26123324 73 38 C74.2375 39.2375 74.2375 39.2375 75.5 40.5 C76.7375 41.7375 76.7375 41.7375 78 43 C78.76054688 43.75796875 79.52109375 44.5159375 80.3046875 45.296875 C82.12241028 47.11986654 83.92952192 48.9534924 85.7265625 50.796875 C91.47689203 56.671568 97.28109519 62.05857719 103.8203125 67.0625 C105.98189507 68.98390673 106.78681574 70.43883322 108 73 C109.66321482 73.35015049 111.33034549 73.68197057 113 74 C113.54914063 74.56847656 114.09828125 75.13695312 114.6640625 75.72265625 C117.77917441 78.7596299 121.25112519 80.76265607 125 82.9375 C125.75313477 83.37771484 126.50626953 83.81792969 127.28222656 84.27148438 C133.32100847 87.73909628 139.47261384 90.56743373 146 93 C146.84433594 93.34804688 147.68867187 93.69609375 148.55859375 94.0546875 C150.80359958 94.92395376 152.97317055 95.56990488 155.3125 96.125 C156.529375 96.41375 157.74625 96.7025 159 97 C158.921875 98.78515625 158.921875 98.78515625 158 101 C155.72750374 102.38771288 153.68651016 103.42182559 151.25 104.4375 C150.55060303 104.7360791 149.85120605 105.0346582 149.13061523 105.34228516 C123.68598554 115.67959854 96.27195471 116.5109673 70 109.125 C69.12778809 108.88056152 68.25557617 108.63612305 67.35693359 108.38427734 C61.90311891 106.77356524 57.00903424 104.67445736 52 102 C51.071875 101.566875 50.14375 101.13375 49.1875 100.6875 C37.08782098 94.28178758 25.33221317 86.00053521 17 75 C16.50113281 74.36449219 16.00226562 73.72898437 15.48828125 73.07421875 C10.37330107 66.438917 6.12147133 59.80367832 3 52 C2.52046875 50.94425781 2.0409375 49.88851562 1.546875 48.80078125 C-0.13684325 44.87642255 -1.17763438 40.9058339 -2.125 36.75 C-2.29676758 36.01144775 -2.46853516 35.27289551 -2.64550781 34.51196289 C-3.94785994 28.70511613 -4.74288781 22.95214718 -5 17 C-3.68 16.67 -2.36 16.34 -1 16 C0.50554634 18.28819146 2.00457043 20.58021169 3.5 22.875 C3.92925781 23.52597656 4.35851562 24.17695313 4.80078125 24.84765625 C8 29.7734375 8 29.7734375 8 32 C8.66 32 9.32 32 10 32 C10.97365714 33.41085244 11.93948808 34.8279744 12.85791016 36.27539062 C14.7394877 39.1166612 16.96950471 41.67017074 19.1875 44.25 C19.91259766 45.09643066 19.91259766 45.09643066 20.65234375 45.95996094 C21.63525754 47.10389152 22.62009711 48.24617044 23.60693359 49.38671875 C24.85678531 50.83414605 26.09516984 52.29145657 27.33203125 53.75 C32.05318973 59.19421879 37.0879706 63.70898862 42.8125 68.08984375 C45 70 45 70 46 73 C46.5775 73.144375 47.155 73.28875 47.75 73.4375 C50.83475709 74.20868927 52.54036457 75.99797117 55 78 C65.83778856 84.43164879 76.28682412 89.83995229 89 91 C88.00097656 90.38511719 87.00195312 89.77023437 85.97265625 89.13671875 C84.66899272 88.32075668 83.3656224 87.504326 82.0625 86.6875 C81.40314453 86.28337891 80.74378906 85.87925781 80.06445312 85.46289062 C75.11328125 82.33984375 75.11328125 82.33984375 74 79 C72.3437271 78.30791454 70.67456602 77.64656854 69 77 C66.96157756 75.59587391 64.96322481 74.13247619 63 72.625 C61.989375 71.85414063 60.97875 71.08328125 59.9375 70.2890625 C52.14928124 64.2200516 52.14928124 64.2200516 49 61 C47.92174289 60.07736763 46.83778112 59.16138418 45.75 58.25 C41.32900214 54.40240223 37.16206869 50.31046988 33 46.1875 C32.31647461 45.51686523 31.63294922 44.84623047 30.92871094 44.15527344 C30.29223633 43.52008789 29.65576172 42.88490234 29 42.23046875 C28.4225 41.65707764 27.845 41.08368652 27.25 40.49291992 C26 39 26 39 26 37 C24.515 36.505 24.515 36.505 23 36 C21.43579853 34.28561252 19.94387998 32.5043823 18.5 30.6875 C17.7265625 29.72199219 16.953125 28.75648438 16.15625 27.76171875 C15.4446875 26.85035156 14.733125 25.93898438 14 25 C13.4121875 24.26394531 12.824375 23.52789062 12.21875 22.76953125 C11 21 11 21 11 19 C10.01 18.67 9.02 18.34 8 18 C6.2109375 15.53125 6.2109375 15.53125 4.375 12.5 C2.43360274 9.06452343 2.43360274 9.06452343 0 6 C-0.04080783 4.00041636 -0.04254356 1.99954746 0 0 Z " fill="#66B222" transform="translate(800,263)"/>
<path d="M0 0 C0.33 0.99 0.66 1.98 1 3 C0.11699219 3.61746094 -0.76601563 4.23492187 -1.67578125 4.87109375 C-16.61323897 15.23495108 -16.61323897 15.23495108 -29.3671875 28.078125 C-31.44696492 30.52609269 -33.71701199 32.74104345 -36 35 C-43.39922709 42.53601952 -49.25305098 50.449832 -54.91748047 59.31835938 C-56.34223599 61.53164671 -57.82714999 63.70205829 -59.3125 65.875 C-62.13477931 70.12021122 -64.59492429 74.50787512 -67 79 C-67.64949213 80.19544697 -68.2992527 81.39074813 -68.94921875 82.5859375 C-72.57670157 89.28808759 -76.03965726 95.96918599 -79 103 C-84.35053202 103.70401737 -87.56934955 101.88340123 -92.12890625 99.43359375 C-96.38316948 97.30935619 -100.83095625 95.78581962 -105.3125 94.2109375 C-108 93 -108 93 -110 90 C-109.4328125 89.16210938 -108.865625 88.32421875 -108.28125 87.4609375 C-106.74824838 85.16277981 -105.2750857 82.83929985 -103.84375 80.4765625 C-98.47936162 71.64096447 -92.67120502 63.32670721 -86.37109375 55.1328125 C-84.06793728 52.28853101 -84.06793728 52.28853101 -83 50 C-82.34 50 -81.68 50 -81 50 C-80.9175 49.38125 -80.835 48.7625 -80.75 48.125 C-80 46 -80 46 -78.0625 45.0625 C-75.22577597 43.60115732 -75.15582786 41.9235646 -74 39 C-70.88245715 35.37690966 -68.38924011 33.70692671 -64 32 C-63.67 31.01 -63.34 30.02 -63 29 C-62.34 28.34 -61.68 27.68 -61 27 C-62.37285156 27.75796875 -62.37285156 27.75796875 -63.7734375 28.53125 C-64.97383845 29.18771927 -66.17436587 29.8439573 -67.375 30.5 C-67.97828125 30.83386719 -68.5815625 31.16773438 -69.203125 31.51171875 C-73.7734375 34 -73.7734375 34 -76 34 C-76 34.66 -76 35.32 -76 36 C-79 38 -79 38 -82 38 C-82.33 38.99 -82.66 39.98 -83 41 C-84.6796875 42.40234375 -84.6796875 42.40234375 -86.875 43.9375 C-96.12281041 50.89916908 -107.48767899 61.76057276 -111 73 C-111.66 73 -112.32 73 -113 73 C-113.25523437 73.88751953 -113.25523437 73.88751953 -113.515625 74.79296875 C-113.75796875 75.58316406 -114.0003125 76.37335938 -114.25 77.1875 C-114.48203125 77.96480469 -114.7140625 78.74210937 -114.953125 79.54296875 C-116.27904074 82.65491278 -117.53037085 84.6620844 -120 87 C-123.453125 87.48828125 -123.453125 87.48828125 -127.25 87.3125 C-128.51328125 87.26738281 -129.7765625 87.22226563 -131.078125 87.17578125 C-132.04234375 87.11777344 -133.0065625 87.05976563 -134 87 C-136.66336638 77.37358427 -129.20209601 64.69553735 -125 56 C-124.03263595 54.64280268 -123.03769713 53.30420951 -122 52 C-121.1028125 50.39125 -121.1028125 50.39125 -120.1875 48.75 C-117.81887602 44.54010605 -114.96146327 40.80661405 -112 37 C-111.41347656 36.20335937 -110.82695313 35.40671875 -110.22265625 34.5859375 C-105.86045756 28.82319649 -101.12331682 24.34407273 -95.41796875 19.91015625 C-93.06417118 18.13251466 -93.06417118 18.13251466 -91.4140625 16.38671875 C-88.48368204 13.51300311 -84.59766981 11.90374562 -81 10 C-80.02160156 9.43796875 -79.04320312 8.8759375 -78.03515625 8.296875 C-54.44904269 -4.60397189 -25.79466412 -5.67955907 0 0 Z " fill="#66B222" transform="translate(933,162)"/>
<path d="M0 0 C16.02672601 1.18278421 32.88295215 3.61142446 44.125 16.25 C47.78105556 20.79733278 49.24907158 23.47759004 49.1953125 29.41796875 C49.18886719 30.67158203 49.18242188 31.92519531 49.17578125 33.21679688 C49.15902344 34.52712891 49.14226562 35.83746094 49.125 37.1875 C49.11496639 38.52277987 49.1058412 39.85806689 49.09765625 41.19335938 C49.07405292 44.46242015 49.04112594 47.73112028 49 51 C44.54943592 49.3856523 42.31090137 47.39165507 39 44 C34.60183511 40.75924692 30.29264243 38.67458198 25.1875 36.875 C24.45990479 36.61638184 23.73230957 36.35776367 22.98266602 36.09130859 C15.10862324 33.45510235 7.23171849 32.66857788 -1 32 C-1.02465504 27.60343827 -1.04283842 23.2069128 -1.05493164 18.81030273 C-1.05997121 17.31355082 -1.06680287 15.81680384 -1.07543945 14.32006836 C-1.08752159 12.17300193 -1.09323191 10.02600038 -1.09765625 7.87890625 C-1.10289307 6.5854126 -1.10812988 5.29191895 -1.11352539 3.95922852 C-1 1 -1 1 0 0 Z " fill="#99BC0A" transform="translate(1122,114)"/>
<path d="M0 0 C1.60772892 -0.01027642 3.21547674 -0.01762553 4.82322693 -0.02372742 C6.16619418 -0.03033402 6.16619418 -0.03033402 7.53629208 -0.03707409 C11.88989004 0.02843923 15.87178384 1.09667645 20.0625 2.1875 C20.89587891 2.38408203 21.72925781 2.58066406 22.58789062 2.78320312 C33.13987476 5.45199289 42.66855783 10.7696045 48.69975662 20.0323925 C51.44140048 26.28977709 50.77418076 33.2842805 50.68115234 39.99438477 C50.67945783 41.70997559 50.68041393 43.42557075 50.68380737 45.14115906 C50.68552255 49.7772275 50.65035063 54.41235659 50.60836363 59.04820752 C50.57074946 63.90081799 50.56732286 68.75345215 50.56021118 73.60618591 C50.54159367 82.78591166 50.49239865 91.96520653 50.43211424 101.14474291 C50.36495264 111.59934708 50.33203586 122.05397229 50.30194163 132.50873864 C50.23929679 154.00606585 50.13382209 175.50300574 50 197 C47.92972865 197.02035962 45.85939902 197.03484649 43.7890625 197.046875 C42.63615723 197.05557617 41.48325195 197.06427734 40.29541016 197.07324219 C35.95046064 196.97667345 32.14032215 196.26449629 28 195 C27.12730469 194.74347656 26.25460937 194.48695313 25.35546875 194.22265625 C15.33222734 190.95634122 7.52985033 185.95340872 1.52445793 177.19374466 C-1.52806496 170.79869861 -0.90711159 163.82729457 -0.79467773 156.89208984 C-0.79270031 155.17635174 -0.79381722 153.46060772 -0.79777527 151.74487305 C-0.79977444 147.11285516 -0.75877275 142.48211974 -0.70975757 137.85039854 C-0.66584199 133.0004813 -0.66187417 128.15053096 -0.65357971 123.30044556 C-0.6318686 114.12776111 -0.57448762 104.95566434 -0.50413328 95.78323805 C-0.42574853 85.33588794 -0.38736784 74.88850898 -0.35226524 64.44093776 C-0.27920083 42.96029784 -0.15616572 21.48018602 0 0 Z M2 2 C1.90656681 24.32234967 1.83602573 46.6446671 1.79275131 68.96717262 C1.77212436 79.33185995 1.74400114 89.6964258 1.69824219 100.06103516 C1.65837859 109.09462451 1.63256816 118.12812588 1.62364602 127.16180074 C1.61843048 131.94528492 1.6061692 136.7285174 1.57707977 141.51192093 C1.54991825 146.01480954 1.5415565 150.51734288 1.54756927 155.02030563 C1.54646937 156.67228883 1.53851976 158.32428397 1.5231781 159.97619629 C1.50323784 162.23412831 1.50807442 164.49072397 1.51898193 166.74868774 C1.51529476 168.01154413 1.51160759 169.27440052 1.50780869 170.57552528 C2.50158764 177.48985065 7.80012625 182.64908523 13 187 C15.56419797 188.64317993 18.17701556 189.8665691 21 191 C21.67675781 191.27585937 22.35351562 191.55171875 23.05078125 191.8359375 C31.37054654 194.90831883 40.16681364 196.0653399 49 196 C49.11685669 173.84259934 49.20499971 151.68524956 49.25906086 129.52760315 C49.28483079 119.23916313 49.31995827 108.9509147 49.37719727 98.66259766 C49.42706919 89.69417822 49.45929982 80.72589755 49.47044247 71.75734329 C49.4769548 67.00950184 49.49223543 62.26205735 49.52865028 57.51434326 C49.56266964 53.04258422 49.57304101 48.57138444 49.56553841 44.09950829 C49.56691031 42.46125432 49.57680761 40.82298104 49.59602737 39.18483925 C49.82589885 27.15718413 49.82589885 27.15718413 44 17 C43.38898438 16.29488281 42.77796875 15.58976563 42.1484375 14.86328125 C32.2638106 6.21967579 19.39858743 1.87786633 6.27783203 1.9699707 C5.07297653 1.97647392 5.07297653 1.97647392 3.84378052 1.98310852 C3.23533295 1.98868271 2.62688538 1.9942569 2 2 Z " fill="#51A745" transform="translate(1121,167)"/>
<path d="M0 0 C-0.61488281 0.32613281 -1.22976563 0.65226562 -1.86328125 0.98828125 C-2.67152344 1.42527344 -3.47976563 1.86226563 -4.3125 2.3125 C-5.11300781 2.74175781 -5.91351562 3.17101562 -6.73828125 3.61328125 C-8.92444221 4.95367355 -10.37960904 6.02611686 -12 8 C-12.45057727 10.04410398 -12.45057727 10.04410398 -12.38476086 12.33595562 C-12.3942174 13.22671124 -12.40367394 14.11746686 -12.41341704 15.03521508 C-12.40856947 16.01477742 -12.40372189 16.99433977 -12.39872742 18.00358582 C-12.40537424 19.04337139 -12.41202107 20.08315696 -12.41886932 21.15445119 C-12.43759337 24.65539308 -12.43488767 28.15599602 -12.43237305 31.65698242 C-12.44138445 34.15986111 -12.45171012 36.66273536 -12.46325684 39.16560364 C-12.48518693 44.5627415 -12.4979332 49.95978254 -12.50238609 55.35695457 C-12.50884003 63.16037013 -12.53176399 70.96366862 -12.55872939 78.76703707 C-12.60202887 91.42695032 -12.63197754 104.08685866 -12.65356445 116.74682617 C-12.67456469 129.04600443 -12.70183141 141.34514241 -12.73754883 153.64428711 C-12.73974765 154.40219582 -12.74194648 155.16010452 -12.74421193 155.94098016 C-12.75528135 159.74312266 -12.7664742 163.54526479 -12.77772844 167.34740674 C-12.87095828 198.89823761 -12.9423136 230.44908318 -13 262 C-9.95828233 261.52115534 -6.91662464 261.04193497 -3.875 260.5625 C-3.0190625 260.42779297 -2.163125 260.29308594 -1.28125 260.15429688 C3.14924955 259.45564118 7.57729031 258.74678541 12 258 C6.66813067 263.33186933 -3.41934888 263.44074782 -10.56640625 264.08203125 C-13 264 -13 264 -15 262 C-15.19577908 259.11045003 -15.26476115 256.31685002 -15.24723816 253.42622375 C-15.24965257 252.52758816 -15.25206699 251.62895257 -15.25455457 250.7030856 C-15.26021886 247.67218313 -15.25150701 244.64148892 -15.24291992 241.6105957 C-15.24399235 239.44387759 -15.24593044 237.27715976 -15.24867249 235.11044312 C-15.25353866 229.20161567 -15.24583654 223.29286326 -15.23571944 217.38404489 C-15.22693561 211.18052522 -15.22869667 204.97700789 -15.2290802 198.77348328 C-15.22814163 188.32285362 -15.21949797 177.87225105 -15.20581055 167.42163086 C-15.1900923 155.41389037 -15.18480828 143.40618787 -15.1855461 131.39843494 C-15.18622815 118.55671626 -15.17923707 105.71500959 -15.1700995 92.87329459 C-15.16798889 89.21072387 -15.16726109 85.54815515 -15.16686058 81.88558388 C-15.16391133 69.74823892 -15.14051171 57.61167177 -15.04939801 45.4746322 C-15.01079208 40.12429286 -15.00440487 34.77597174 -15.03827995 29.42561346 C-15.0498966 26.48357175 -15.03011993 23.54244903 -14.99990141 20.60056722 C-14.98993588 18.69690405 -15.01922862 16.79315748 -15.05030346 14.88972187 C-14.91935651 7.06942793 -14.91935651 7.06942793 -12.22339439 3.93338966 C-8.14877903 0.80370306 -5.06735811 -1.52020743 0 0 Z " fill="#5FB361" transform="translate(753,101)"/>
<path d="M0 0 C6.10700807 0 9.94788983 0.02944352 15.55078125 1.4375 C18.35321299 2.08112069 21.15351631 2.47093641 24 2.875 C29.4825022 3.74657727 34.08995138 5.44578279 39 8 C33.86937089 9.62397666 29.45989613 7.56496712 24.52148438 6.00195312 C17.13126006 3.78552457 9.64314056 2.89154109 2 2 C2.00444122 2.63449066 2.00888245 3.26898132 2.01345825 3.92269897 C2.0576008 10.50833898 2.08782852 17.09393717 2.10986328 23.6796875 C2.11993983 26.13966579 2.13360131 28.59963206 2.15087891 31.05957031 C2.17505461 34.58922285 2.1864664 38.11871747 2.1953125 41.6484375 C2.20563507 42.75367767 2.21595764 43.85891785 2.22659302 44.99765015 C2.22674408 46.01855743 2.22689514 47.03946472 2.22705078 48.09130859 C2.231492 48.99287689 2.23593323 49.89444519 2.24050903 50.82333374 C2 53 2 53 0 55 C-2.24658203 55.22705078 -2.24658203 55.22705078 -5.0078125 55.1953125 C-6.34030029 55.18781982 -6.34030029 55.18781982 -7.69970703 55.18017578 C-8.83005371 55.16196777 -9.96040039 55.14375977 -11.125 55.125 C-14.71375 55.08375 -18.3025 55.0425 -22 55 C-22 66.88 -22 78.76 -22 91 C-15.07 91 -8.14 91 -1 91 C-0.67 91.99 -0.34 92.98 0 94 C-3.97915159 94.02886984 -7.95827653 94.04675406 -11.9375 94.0625 C-13.64196289 94.07506836 -13.64196289 94.07506836 -15.38085938 94.08789062 C-16.46044922 94.09111328 -17.54003906 94.09433594 -18.65234375 94.09765625 C-20.15269165 94.10551147 -20.15269165 94.10551147 -21.68334961 94.11352539 C-24 94 -24 94 -25 93 C-25.10110353 90.0546443 -25.13969279 87.1332244 -25.1328125 84.1875 C-25.13376923 83.30344482 -25.13472595 82.41938965 -25.13571167 81.50854492 C-25.13639351 79.63557871 -25.13453893 77.76261014 -25.13037109 75.88964844 C-25.12502289 73.01231612 -25.13031593 70.13513992 -25.13671875 67.2578125 C-25.13605797 65.44270799 -25.13477681 63.62760357 -25.1328125 61.8125 C-25.13483673 60.94584717 -25.13686096 60.07919434 -25.13894653 59.1862793 C-25.11495009 53.11495009 -25.11495009 53.11495009 -24 52 C-16.41 51.67 -8.82 51.34 -1 51 C-0.67 34.17 -0.34 17.34 0 0 Z " fill="#A2C566" transform="translate(977,115)"/>
<path d="M0 0 C0.33 0.66 0.66 1.32 1 2 C0.24678827 3.48806809 -0.55977498 4.949174 -1.38647461 6.39770508 C-5.32703271 14.84577435 -4.790692 23.49648597 -4.81640625 32.63671875 C-4.83969729 34.67609994 -4.86462278 36.71546299 -4.89100647 38.75480652 C-4.97008762 45.83651484 -4.98800116 52.91790398 -5 60 C-5.00300716 61.35067002 -5.00608831 62.70133989 -5.0092392 64.05200958 C-5.06572979 89.42135995 -4.99983556 114.79065742 -4.91250378 140.15986603 C-4.88509855 148.12614558 -4.86328955 156.09239413 -4.85249335 164.05871505 C-4.84598541 168.53490959 -4.83052013 173.01095236 -4.80817592 177.48709452 C-4.79376093 180.88047149 -4.79227473 184.27383092 -4.78881836 187.66723633 C-4.78005676 188.89531006 -4.77129517 190.12338379 -4.76226807 191.38867188 C-4.76357224 192.50148026 -4.7648764 193.61428864 -4.76622009 194.76081848 C-4.76307769 195.73033856 -4.75993528 196.69985865 -4.75669765 197.69875813 C-5 200 -5 200 -7 202 C-7.07021279 178.3815756 -7.12304818 154.76316694 -7.15543652 131.14465904 C-7.17087753 120.17713295 -7.19191398 109.20967186 -7.22631836 98.2421875 C-7.25630559 88.67821444 -7.27559509 79.11428849 -7.28226548 69.55026972 C-7.28616199 64.49047869 -7.29526121 59.43082236 -7.31719017 54.37107468 C-7.33770289 49.59899067 -7.3438042 44.82709561 -7.33932304 40.05497169 C-7.34014168 38.31282966 -7.34601859 36.57068066 -7.35761642 34.82857704 C-7.52471399 8.41100548 -7.52471399 8.41100548 0 0 Z " fill="#77C4E9" transform="translate(336,110)"/>
<path d="M0 0 C16.02672601 1.18278421 32.88295215 3.61142446 44.125 16.25 C47.78105556 20.79733278 49.24907158 23.47759004 49.1953125 29.41796875 C49.18886719 30.67158203 49.18242188 31.92519531 49.17578125 33.21679688 C49.15902344 34.52712891 49.14226562 35.83746094 49.125 37.1875 C49.11496639 38.52277987 49.1058412 39.85806689 49.09765625 41.19335938 C49.07405292 44.46242015 49.04112594 47.73112028 49 51 C45.85232409 49.85870691 44.12462705 49.12808892 41.75 46.6875 C38.23519457 43.25257651 34.34689455 41.22553425 30 39 C31.578125 38.22265625 31.578125 38.22265625 34 38 C36.41400813 39.39650954 38.53072015 40.78157581 40.75 42.4375 C41.35199219 42.87126953 41.95398437 43.30503906 42.57421875 43.75195312 C44.05769401 44.82335193 45.52997152 45.91022455 47 47 C46.88970353 43.43688596 46.75917283 39.87478855 46.625 36.3125 C46.5940625 35.30509766 46.563125 34.29769531 46.53125 33.25976562 C46.47324219 31.79506836 46.47324219 31.79506836 46.4140625 30.30078125 C46.3826416 29.40528564 46.3512207 28.50979004 46.31884766 27.5871582 C45.49558423 20.90712568 41.99271542 17.15424413 37 13 C25.67073566 5.19539568 13.32658998 4.29287813 0 3 C0 11.91 0 20.82 0 30 C2.97 30 5.94 30 9 30 C11.80266204 30.54109501 14.45026876 31.1219276 17.1875 31.875 C17.85974609 32.04902344 18.53199219 32.22304687 19.22460938 32.40234375 C23.20542041 33.44890556 27.11000715 34.65695426 31 36 C29.29296875 37.109375 29.29296875 37.109375 27 38 C24.80078125 37.390625 24.80078125 37.390625 22.3125 36.25 C14.77892229 33.22019157 7.01778739 32.71436324 -1 32 C-1.02465504 27.60343827 -1.04283842 23.2069128 -1.05493164 18.81030273 C-1.05997121 17.31355082 -1.06680287 15.81680384 -1.07543945 14.32006836 C-1.08752159 12.17300193 -1.09323191 10.02600038 -1.09765625 7.87890625 C-1.10289307 6.5854126 -1.10812988 5.29191895 -1.11352539 3.95922852 C-1 1 -1 1 0 0 Z " fill="#8CB036" transform="translate(1122,114)"/>
<path d="M0 0 C1.04929687 -0.00708984 2.09859375 -0.01417969 3.1796875 -0.02148438 C8.85262121 0.02519166 12.94957933 0.31722656 17.75 3.4375 C14.4824255 4.50675207 12.3774972 4.31673844 9.0625 3.5 C-1.85390075 1.19930507 -13.08776184 2.46533918 -22.96875 7.9453125 C-25.26520557 9.63619588 -27.24475927 11.41192214 -29.25 13.4375 C-29.89582031 14.03820312 -30.54164063 14.63890625 -31.20703125 15.2578125 C-41.6331339 26.45215429 -40.82682415 45.24875955 -40.76642036 59.5656662 C-40.75356947 62.62710625 -40.76527337 65.68767374 -40.78245544 68.74908447 C-40.80888213 74.13229755 -40.81476052 79.51528865 -40.81335449 84.89855957 C-40.81110578 93.55383913 -40.82528511 102.20884836 -40.86894035 110.8640213 C-40.87874383 113.87203983 -40.87008849 116.87962502 -40.86024475 119.88763428 C-40.86638726 121.72945438 -40.87329842 123.57127213 -40.88110352 125.41308594 C-40.87338425 126.2422049 -40.86566498 127.07132385 -40.85771179 127.92556763 C-40.90061167 132.83399147 -41.55506765 136.17353717 -44.25 140.4375 C-46.4375 142.3125 -46.4375 142.3125 -48.25 143.4375 C-48.91 143.1075 -49.57 142.7775 -50.25 142.4375 C-49.61771484 141.71433594 -49.61771484 141.71433594 -48.97265625 140.9765625 C-48.42480469 140.34492188 -47.87695312 139.71328125 -47.3125 139.0625 C-46.76722656 138.43601562 -46.22195313 137.80953125 -45.66015625 137.1640625 C-42.42742961 133.20598723 -43.11285349 129.02235167 -43.12402344 124.14526367 C-43.1221553 123.1807428 -43.12028717 122.21622192 -43.11836243 121.22247314 C-43.11435084 119.12118485 -43.1122829 117.01989217 -43.11190033 114.91860008 C-43.10848653 110.43983822 -43.08711684 105.96122174 -43.06666946 101.48251057 C-43.02868032 93.14172389 -42.99737457 84.80108808 -42.99951172 76.46020508 C-43.00030261 70.66105195 -42.9767665 64.86242529 -42.9376297 59.06340981 C-42.92721826 56.86084681 -42.92560955 54.65822267 -42.93328094 52.45564842 C-42.98392501 36.2900969 -42.14752641 22.6820376 -30.25 10.4375 C-21.40196958 2.21620506 -11.85661653 -0.22914907 0 0 Z " fill="#73C5E7" transform="translate(420.25,206.5625)"/>
<path d="M0 0 C0.66 0 1.32 0 2 0 C2.00586624 1.18270981 2.01173248 2.36541962 2.01777649 3.58396912 C2.07508501 14.75085204 2.14788921 25.91754175 2.23571491 37.08422756 C2.28036891 42.82461063 2.31963613 48.56492353 2.34643555 54.30541992 C2.37251789 59.84930359 2.41295551 65.39291655 2.46318626 70.93663216 C2.47982159 73.04759405 2.49135657 75.15860273 2.49761391 77.2696209 C2.50729119 80.2352905 2.53539414 83.2002727 2.56762695 86.16577148 C2.56619186 87.0310849 2.56475677 87.89639832 2.5632782 88.78793335 C2.67486328 96.08680781 3.65498577 102.75365388 9 108 C9 108.66 9 109.32 9 110 C9.66 110 10.32 110 11 110 C10.505 110.99 10.505 110.99 10 112 C4.89677904 109.95871162 3.31119193 106.48867903 1.05240822 101.78226089 C-0.60215986 97.40806468 -0.6612108 93.40894137 -0.56762695 88.77685547 C-0.56835709 87.80979172 -0.56908722 86.84272797 -0.56983948 85.84635925 C-0.56638765 82.68604182 -0.52764067 79.52724378 -0.48828125 76.3671875 C-0.47894457 74.16188359 -0.4718325 71.95656925 -0.46684265 69.75125122 C-0.44784034 63.9741097 -0.3987977 58.19760638 -0.34332275 52.42071533 C-0.2919841 46.51493968 -0.26929745 40.60905994 -0.24414062 34.703125 C-0.19067254 23.13513776 -0.1054419 11.56762215 0 0 Z " fill="#9CC26A" transform="translate(1025,211)"/>
<path d="M0 0 C0.33 0 0.66 0 1 0 C1.85179382 6.63712409 2.14840928 13.10892973 2.14526367 19.79638672 C2.15030159 21.35657784 2.15030159 21.35657784 2.15544128 22.94828796 C2.1648794 26.35876686 2.16689011 29.76919639 2.16796875 33.1796875 C2.17118389 35.55860413 2.17454816 37.93752055 2.17805481 40.31643677 C2.18402643 45.28745991 2.18589649 50.25846571 2.18530273 55.22949219 C2.18520067 61.60861112 2.19890716 67.98761985 2.21607494 74.36671257 C2.22716773 79.27192704 2.22922286 84.17711451 2.22869301 89.08234024 C2.22987515 91.43554187 2.23430995 93.78874416 2.24202538 96.14193344 C2.25177976 99.42136266 2.24896636 102.70054765 2.24291992 105.97998047 C2.24853943 106.95558426 2.25415894 107.93118805 2.25994873 108.93635559 C2.253657 110.27350365 2.253657 110.27350365 2.24723816 111.63766479 C2.24778293 112.41226484 2.24832769 113.18686489 2.24888897 113.98493767 C2 116 2 116 0 119 C-0.66 119 -1.32 119 -2 119 C-1.67 118.01 -1.34 117.02 -1 116 C-0.89916166 114.41413657 -0.85380664 112.8244485 -0.84178162 111.23542786 C-0.8319928 110.25526199 -0.82220398 109.27509613 -0.81211853 108.26522827 C-0.80636307 107.19132843 -0.8006076 106.11742859 -0.79467773 105.01098633 C-0.78477814 103.87913406 -0.77487854 102.7472818 -0.76467896 101.58113098 C-0.73303402 97.83145252 -0.70829459 94.08176137 -0.68359375 90.33203125 C-0.66302682 87.73556688 -0.64203042 85.13910588 -0.62062073 82.54264832 C-0.57102327 76.40164154 -0.52576491 70.26061675 -0.48259836 64.11956185 C-0.4332125 57.12805887 -0.37829938 50.13660273 -0.32291877 43.14514506 C-0.20912295 28.76347404 -0.10227868 14.3817573 0 0 Z " fill="#76C7E5" transform="translate(507,223)"/>
<path d="M0 0 C0.66 0 1.32 0 2 0 C3.23833716 24.98265839 3.23833716 24.98265839 -4 35 C-5 33 -5 33 -4.2578125 30.7578125 C-3.88398437 29.88898438 -3.51015625 29.02015625 -3.125 28.125 C-1.11862753 23.4247568 0.13235322 19.58827585 0.09765625 14.453125 C0.09443359 13.60878906 0.09121094 12.76445312 0.08789062 11.89453125 C0.07951172 11.02183594 0.07113281 10.14914062 0.0625 9.25 C0.05798828 8.36183594 0.05347656 7.47367187 0.04882812 6.55859375 C0.037074 4.37232671 0.02064249 2.18619821 0 0 Z M-86 16 C-85.67 16 -85.34 16 -85 16 C-84.99742187 17.11117188 -84.99484375 18.22234375 -84.9921875 19.3671875 C-84.78666659 29.93191267 -83.40825915 36.94872066 -76.16015625 45.05859375 C-66.52798035 53.71535943 -54.18442888 54.09499805 -41.87890625 53.5859375 C-30.08629029 52.68538974 -17.67964895 47.93290578 -9.3515625 39.2890625 C-8.1766457 37.90642561 -7.07749656 36.45983404 -6 35 C-6 38.9765245 -7.38011503 40.0890167 -10 43 C-13.51724138 46 -13.51724138 46 -16 46 C-16 46.66 -16 47.32 -16 48 C-18.31 48.66 -20.62 49.32 -23 50 C-23 50.66 -23 51.32 -23 52 C-37.27249041 56.65025814 -55.07158747 59.30216262 -69 52.375 C-77.1820111 48.07944417 -82.85502158 42.82086102 -86 34 C-86.43575289 30.80603826 -86.38615473 27.71534627 -86.25 24.5 C-86.23195313 23.67757813 -86.21390625 22.85515625 -86.1953125 22.0078125 C-86.1487283 20.00469196 -86.07700699 18.00218179 -86 16 Z " fill="#56B5DC" transform="translate(662,282)"/>
<path d="M0 0 C0.495 1.485 0.495 1.485 1 3 C0.01 3.33 -0.98 3.66 -2 4 C-2 3.01 -2 2.02 -2 1 C-8.22144561 0.8746143 -14.44212554 0.78483416 -20.66455078 0.7253418 C-22.77275432 0.70049225 -24.8808745 0.66660015 -26.98876953 0.62280273 C-49.75705113 0.1622354 -68.87433002 4.8520522 -88.1875 17.23046875 C-90.42425352 18.63775951 -92.61157748 19.88042694 -95 21 C-91.04341917 15.51183949 -86.98190313 13.01278333 -81 10 C-80.02417969 9.44183594 -79.04835938 8.88367188 -78.04296875 8.30859375 C-54.48812334 -4.62840913 -25.77418305 -5.67504948 0 0 Z " fill="#76B75A" transform="translate(933,162)"/>
<path d="M0 0 C0.95571396 -0.00570007 1.91142792 -0.01140015 2.89610291 -0.01727295 C4.91404121 -0.02668562 6.93199462 -0.03324201 8.94995117 -0.03710938 C11.99360985 -0.04676795 15.03657887 -0.07780804 18.08007812 -0.109375 C31.16973992 -0.18068128 42.49287947 0.93576024 54.96484375 5.203125 C54.96484375 5.533125 54.96484375 5.863125 54.96484375 6.203125 C50.7676386 5.70735421 46.60003549 5.15932689 42.43359375 4.44921875 C24.15812902 1.41038504 6.42426687 1.48444784 -11.97265625 3.515625 C-13.04410889 3.63309082 -14.11556152 3.75055664 -15.21948242 3.87158203 C-20.81211112 4.5628802 -25.91297593 5.59370753 -31.19140625 7.58789062 C-33.52142802 8.3653873 -35.59977304 8.43880725 -38.03515625 8.203125 C-38.03515625 7.543125 -38.03515625 6.883125 -38.03515625 6.203125 C-34.68226713 5.38529222 -31.32763648 4.57483286 -27.97265625 3.765625 C-27.02970703 3.53552734 -26.08675781 3.30542969 -25.11523438 3.06835938 C-24.19033203 2.84599609 -23.26542969 2.62363281 -22.3125 2.39453125 C-21.46937256 2.19029541 -20.62624512 1.98605957 -19.75756836 1.77563477 C-13.13412765 0.38275803 -6.7399685 0.03167635 0 0 Z " fill="#57B6DA" transform="translate(607.03515625,164.796875)"/>
<path d="M0 0 C0.33 0 0.66 0 1 0 C1.01030746 1.25930328 1.02061493 2.51860657 1.03123474 3.81607056 C1.12934244 15.7318314 1.23210868 27.64754436 1.33933926 39.5632267 C1.39430938 45.68796756 1.44768534 51.81271335 1.49731445 57.9375 C1.54534345 63.85736235 1.59769532 69.77717265 1.65294075 75.69697189 C1.67319123 77.94616765 1.69193069 80.19537757 1.70907402 82.44459915 C1.8240503 98.48549069 1.8240503 98.48549069 2.89002991 114.48471069 C3 117 3 117 2 120 C2.66 120 3.32 120 4 120 C4.66 123.63 5.32 127.26 6 131 C5.34 131 4.68 131 4 131 C0.56287131 122.33245809 -0.14466768 114.86830539 -0.11352539 105.57861328 C-0.11367142 104.43656937 -0.11381744 103.29452545 -0.1139679 102.11787415 C-0.11327256 98.35200078 -0.10549784 94.5861772 -0.09765625 90.8203125 C-0.09579073 88.20571927 -0.09436746 85.59112569 -0.09336853 82.97653198 C-0.09026557 76.80372016 -0.08206618 70.63092613 -0.07201904 64.45812213 C-0.06082571 57.42788949 -0.05533935 50.39765597 -0.05032361 43.36741662 C-0.03988267 28.91160192 -0.02230333 14.45580121 0 0 Z " fill="#99C369" transform="translate(977,209)"/>
<path d="M0 0 C5.96313166 -0.02464574 11.92623395 -0.042834 17.8894043 -0.05493164 C19.91968298 -0.05997278 21.94995802 -0.06680557 23.98022461 -0.07543945 C26.89177347 -0.08751467 29.8032745 -0.09323034 32.71484375 -0.09765625 C33.6283812 -0.10281754 34.54191864 -0.10797882 35.48313904 -0.11329651 C37.65575427 -0.11349168 39.82827296 -0.06211805 42 0 C43 1 43 1 43.11352539 4.69360352 C43.11336624 6.33871292 43.10766988 7.98382731 43.09765625 9.62890625 C43.0962413 10.49313705 43.09482635 11.35736786 43.09336853 12.24778748 C43.08775239 15.01939292 43.07519719 17.7909188 43.0625 20.5625 C43.05748708 22.4368478 43.05292381 24.31119685 43.04882812 26.18554688 C43.03777772 30.79039544 43.0205023 35.39518421 43 40 C42.01 39.505 42.01 39.505 41 39 C41 26.79 41 14.58 41 2 C27.47 2 13.94 2 0 2 C0 1.34 0 0.68 0 0 Z " fill="#99BE6C" transform="translate(1032,167)"/>
<path d="M0 0 C0.6568277 -0.00095673 1.3136554 -0.00191345 1.99038696 -0.00289917 C3.3702199 -0.00357489 4.75005612 -0.00176341 6.12988281 0.00244141 C8.21426733 0.007781 10.29843471 0.00248453 12.3828125 -0.00390625 C19.27741282 -0.00699329 26.01717565 0.17811988 32.8515625 1.1328125 C32.8515625 1.7928125 32.8515625 2.4528125 32.8515625 3.1328125 C32.27242096 3.13867874 31.69327942 3.14454498 31.09658813 3.15058899 C25.02843731 3.21489087 18.96079892 3.29940208 12.89306641 3.39526367 C10.63336983 3.42836627 8.37359349 3.45644309 6.11376953 3.47924805 C2.8515446 3.51306467 -0.40995889 3.56539366 -3.671875 3.62109375 C-4.67020355 3.62748367 -5.6685321 3.6338736 -6.69711304 3.64045715 C-12.5500853 3.76110883 -17.53168249 4.57385176 -23.07144165 6.49455261 C-25.1484375 7.1328125 -25.1484375 7.1328125 -28.1484375 7.1328125 C-28.1484375 6.4728125 -28.1484375 5.8128125 -28.1484375 5.1328125 C-25.96270188 4.48103281 -23.7747552 3.83666576 -21.5859375 3.1953125 C-20.36777344 2.83566406 -19.14960938 2.47601563 -17.89453125 2.10546875 C-11.90838195 0.55119224 -6.17474449 0.00578082 0 0 Z " fill="#4FB0DC" transform="translate(191.1484375,99.8671875)"/>
<path d="M0 0 C6.10700807 0 9.94788983 0.02944352 15.55078125 1.4375 C18.35321299 2.08112069 21.15351631 2.47093641 24 2.875 C29.4825022 3.74657727 34.08995138 5.44578279 39 8 C33.89091113 9.615145 29.5218568 7.57520231 24.609375 6.00195312 C16.87449142 3.67208802 9.00378944 2.86957347 1 2 C1.00222061 2.6241832 1.00444122 3.24836639 1.00672913 3.89146423 C1.0287808 10.36342804 1.0439061 16.83538125 1.05493164 23.30737305 C1.05997349 25.72567172 1.06680678 28.14396733 1.07543945 30.56225586 C1.08751157 34.02979283 1.09322963 37.49728966 1.09765625 40.96484375 C1.10281754 42.05337143 1.10797882 43.14189911 1.11329651 44.26341248 C1.11337204 45.26437454 1.11344757 46.26533661 1.11352539 47.29663086 C1.115746 48.18265488 1.11796661 49.06867889 1.12025452 49.98155212 C1 52 1 52 0 53 C-2.35313555 53.07271741 -4.70833668 53.08370868 -7.0625 53.0625 C-8.35285156 53.05347656 -9.64320313 53.04445312 -10.97265625 53.03515625 C-11.97167969 53.02355469 -12.97070312 53.01195312 -14 53 C-14 52.67 -14 52.34 -14 52 C-7.565 51.505 -7.565 51.505 -1 51 C-0.67 34.17 -0.34 17.34 0 0 Z " fill="#97BE70" transform="translate(977,115)"/>
<path d="M0 0 C0.33 0 0.66 0 1 0 C1.79348625 4.87348823 2.11813526 9.52940184 2.09765625 14.46484375 C2.0962413 15.14301651 2.09482635 15.82118927 2.09336853 16.51991272 C2.08782745 18.65915578 2.07528653 20.79828925 2.0625 22.9375 C2.05747736 24.39908702 2.0529158 25.86067569 2.04882812 27.32226562 C2.03787745 30.88154526 2.02065445 34.44076191 2 38 C11.07901818 37.70252632 18.79957837 37.03639493 27.25 33.5 C28.06339844 33.17902344 28.87679688 32.85804688 29.71484375 32.52734375 C31.19820956 31.94135296 32.67829149 31.34690505 34.15332031 30.74023438 C35.74662641 30.10156382 37.37154307 29.54281898 39 29 C39 29.66 39 30.32 39 31 C31.62180046 35.44525065 24.40091833 37.91407823 16.0625 39.875 C15.15089111 40.08987061 14.23928223 40.30474121 13.30004883 40.52612305 C9.11969268 41.46209292 5.30825779 42.22321619 1 42 C0 41 0 41 -0.11352539 37.12280273 C-0.11336621 35.39305833 -0.10766849 33.66330919 -0.09765625 31.93359375 C-0.0962413 31.02497086 -0.09482635 30.11634796 -0.09336853 29.18019104 C-0.08775193 26.26592779 -0.07519665 23.35174019 -0.0625 20.4375 C-0.05748714 18.46679798 -0.05292386 16.49609476 -0.04882812 14.52539062 C-0.03777711 9.68356441 -0.02050138 4.84179505 0 0 Z " fill="#72C1E6" transform="translate(329,322)"/>
<path d="M0 0 C0.33 0 0.66 0 1 0 C1.04640234 7.47587939 1.08190926 14.95172757 1.10362434 22.42772198 C1.11404809 25.89937628 1.12818138 29.37093182 1.15087891 32.8425293 C1.17682701 36.83643527 1.18648443 40.83023798 1.1953125 44.82421875 C1.20563507 46.06709152 1.21595764 47.30996429 1.22659302 48.59049988 C1.22674408 49.75132584 1.22689514 50.91215179 1.22705078 52.1081543 C1.231492 53.12741501 1.23593323 54.14667572 1.24050903 55.19682312 C0.98730315 58.14798414 0.23751344 60.32394374 -1 63 C-1.33 63 -1.66 63 -2 63 C-2.02464705 57.32169922 -2.04283462 51.64342931 -2.05493164 45.96508789 C-2.05997256 44.03181415 -2.06680519 42.09854424 -2.07543945 40.1652832 C-2.08751565 37.39273128 -2.09323057 34.62022959 -2.09765625 31.84765625 C-2.10281754 30.97786636 -2.10797882 30.10807648 -2.11329651 29.21192932 C-2.11349185 27.14094186 -2.06208168 25.07005676 -2 23 C-1.67 22.67 -1.34 22.34 -1 22 C-0.84285346 20.36743242 -0.74914586 18.72864662 -0.68359375 17.08984375 C-0.62075195 15.60581055 -0.62075195 15.60581055 -0.55664062 14.09179688 C-0.49766602 12.53041992 -0.49766602 12.53041992 -0.4375 10.9375 C-0.39431641 9.89271484 -0.35113281 8.84792969 -0.30664062 7.77148438 C-0.20018775 5.18113116 -0.0981724 2.59067814 0 0 Z " fill="#64B335" transform="translate(788,282)"/>
<path d="M0 0 C1.23556641 0.01740234 1.23556641 0.01740234 2.49609375 0.03515625 C3.32238281 0.04417969 4.14867187 0.05320313 5 0.0625 C5.63808594 0.07410156 6.27617188 0.08570313 6.93359375 0.09765625 C6.93359375 0.42765625 6.93359375 0.75765625 6.93359375 1.09765625 C4.62359375 1.42765625 2.31359375 1.75765625 -0.06640625 2.09765625 C-0.39640625 14.63765625 -0.72640625 27.17765625 -1.06640625 40.09765625 C6.52359375 40.09765625 14.11359375 40.09765625 21.93359375 40.09765625 C21.93359375 40.75765625 21.93359375 41.41765625 21.93359375 42.09765625 C17.95444216 42.12652609 13.97531722 42.14441031 9.99609375 42.16015625 C8.29163086 42.17272461 8.29163086 42.17272461 6.55273438 42.18554688 C5.47314453 42.18876953 4.39355469 42.19199219 3.28125 42.1953125 C1.7809021 42.20316772 1.7809021 42.20316772 0.25024414 42.21118164 C-2.06640625 42.09765625 -2.06640625 42.09765625 -3.06640625 41.09765625 C-3.16750978 38.15230055 -3.20609904 35.23088065 -3.19921875 32.28515625 C-3.20017548 31.40110107 -3.2011322 30.5170459 -3.20211792 29.60620117 C-3.20279976 27.73323496 -3.20094518 25.86026639 -3.19677734 23.98730469 C-3.19142914 21.10997237 -3.19672218 18.23279617 -3.203125 15.35546875 C-3.20246422 13.54036424 -3.20118306 11.72525982 -3.19921875 9.91015625 C-3.20124298 9.04350342 -3.20326721 8.17685059 -3.20535278 7.28393555 C-3.17715707 0.1501492 -3.17715707 0.1501492 0 0 Z " fill="#99C06E" transform="translate(955.06640625,166.90234375)"/>
<path d="M0 0 C6.15234375 -0.09765625 6.15234375 -0.09765625 8 0 C9.56111385 1.56111385 9.13430041 3.07340805 9.14476013 5.24485779 C9.15510788 6.61829849 9.15510788 6.61829849 9.16566467 8.01948547 C9.16827805 9.03197861 9.17089142 10.04447174 9.17358398 11.08764648 C9.180271 12.14771912 9.18695801 13.20779175 9.19384766 14.29998779 C9.20793498 16.61029836 9.21981718 18.92062315 9.22979546 21.23095512 C9.24614246 24.88197364 9.26937669 28.53288651 9.29469299 32.18385315 C9.36564898 42.56725851 9.4256753 52.950707 9.47680664 63.33422852 C9.50852252 69.67667351 9.54977926 76.01899772 9.59700203 82.36134529 C9.61306724 84.78512469 9.62536776 87.20893196 9.63390923 89.63274956 C9.64600489 93.01627811 9.67013009 96.39952046 9.69702148 99.78295898 C9.6979052 101.29866234 9.6979052 101.29866234 9.69880676 102.84498596 C9.70852509 103.76343292 9.71824341 104.68187988 9.72825623 105.62815857 C9.73248816 106.42881965 9.7367201 107.22948072 9.74108028 108.05440426 C9.83087408 110.23597267 9.83087408 110.23597267 12 112 C9.525 112.495 9.525 112.495 7 113 C7 76.37 7 39.74 7 2 C4.69 1.67 2.38 1.34 0 1 C0 0.67 0 0.34 0 0 Z " fill="#71C2E5" transform="translate(370,93)"/>
<path d="M0 0 C2.9375 0.8125 2.9375 0.8125 6 2 C6.33 2.99 6.66 3.98 7 5 C9.09719872 6.02281518 9.09719872 6.02281518 11.5625 6.6875 C12.38878906 6.93886719 13.21507812 7.19023437 14.06640625 7.44921875 C15.02353516 7.72185547 15.02353516 7.72185547 16 8 C16 8.66 16 9.32 16 10 C22.93 10.495 22.93 10.495 30 11 C30 11.66 30 12.32 30 13 C41.22 12.67 52.44 12.34 64 12 C64 12.33 64 12.66 64 13 C47.19503126 17.22956517 26.26050497 16.73754359 10.40234375 9.31640625 C6.08746823 6.67290544 2.87663865 4.19088571 0 0 Z " fill="#99C16E" transform="translate(989,353)"/>
<path d="M0 0 C0.99 0.66 1.98 1.32 3 2 C2.360625 2.268125 1.72125 2.53625 1.0625 2.8125 C-1.33131686 3.88667752 -1.33131686 3.88667752 -2 7 C-2.66 7 -3.32 7 -4 7 C-4.268125 7.639375 -4.53625 8.27875 -4.8125 8.9375 C-6 11 -6 11 -9 12 C-9.73323796 14.01508358 -9.73323796 14.01508358 -10 16 C-10.66 16 -11.32 16 -12 16 C-12.12375 16.598125 -12.2475 17.19625 -12.375 17.8125 C-13 20 -13 20 -15 23 C-15.66 23 -16.32 23 -17 23 C-17.0825 24.155 -17.165 25.31 -17.25 26.5 C-17.81486683 31.22127498 -19.66168853 34.9106739 -22 39 C-22.66 38.67 -23.32 38.34 -24 38 C-21.32328967 28.10428302 -17.51899723 19.04630515 -11 11 C-10.34 11 -9.68 11 -9 11 C-8.62875 9.7934375 -8.62875 9.7934375 -8.25 8.5625 C-7.8375 7.716875 -7.425 6.87125 -7 6 C-5.67696283 5.6278958 -4.34262065 5.29369827 -3 5 C-1.77472052 3.04978917 -1.77472052 3.04978917 -1 1 C-0.67 0.67 -0.34 0.34 0 0 Z " fill="#4AA9D7" transform="translate(135,119)"/>
<path d="M0 0 C7.76081844 0 12.904039 0.32418653 20.0625 2.1875 C20.89587891 2.38408203 21.72925781 2.58066406 22.58789062 2.78320312 C32.51415144 5.29373602 42.19194543 10.28791814 48 19 C47.505 20.485 47.505 20.485 47 22 C46.58492187 21.43152344 46.16984375 20.86304688 45.7421875 20.27734375 C36.15034602 8.25744197 22.65886365 4.48305444 7.8984375 2.60546875 C5.60289033 2.36298137 3.30172348 2.17437299 1 2 C1 8.27 1 14.54 1 21 C0.67 21 0.34 21 0 21 C0 14.07 0 7.14 0 0 Z " fill="#66AC52" transform="translate(1121,167)"/>
<path d="M0 0 C-0.61488281 0.32613281 -1.22976563 0.65226562 -1.86328125 0.98828125 C-2.67152344 1.42527344 -3.47976563 1.86226563 -4.3125 2.3125 C-5.11300781 2.74175781 -5.91351562 3.17101562 -6.73828125 3.61328125 C-9.72234196 5.42628388 -9.72234196 5.42628388 -12 8 C-12.30947461 10.60781298 -12.43751898 12.9823481 -12.43237305 15.5925293 C-12.4425647 16.36349945 -12.45275635 17.1344696 -12.46325684 17.92880249 C-12.49345321 20.47734786 -12.50266271 23.02551779 -12.51171875 25.57421875 C-12.52856055 27.34114335 -12.54671011 29.10805593 -12.56611633 30.87495422 C-12.6136768 35.52572881 -12.64344695 40.17645468 -12.66955566 44.82739258 C-12.69933075 49.57317732 -12.74587152 54.31879409 -12.79101562 59.06445312 C-12.87711747 68.37621433 -12.94443209 77.68801004 -13 87 C-13.33 87 -13.66 87 -14 87 C-14.44082731 70.33480119 -14.77541002 53.66953054 -15 37 C-15.01369629 36.08913635 -15.02739258 35.17827271 -15.04150391 34.23980713 C-15.1155785 29.07421506 -15.1159609 23.91585956 -15.0625 18.75 C-15.07804932 17.51757568 -15.09359863 16.28515137 -15.10961914 15.01538086 C-14.93637698 7.09111398 -14.93637698 7.09111398 -12.21826172 3.92382812 C-8.14604101 0.7971581 -5.06260989 -1.51878297 0 0 Z " fill="#68B757" transform="translate(753,101)"/>
<path d="M0 0 C0.33 0 0.66 0 1 0 C1 21.45 1 42.9 1 65 C0.01 65 -0.98 65 -2 65 C-2 57.08 -2 49.16 -2 41 C-1.34 41 -0.68 41 0 41 C0 27.47 0 13.94 0 0 Z " fill="#719642" transform="translate(788,170)"/>
<path d="M0 0 C2.0625 0.4375 2.0625 0.4375 4 1 C2.50565577 1.80229137 1.00413528 2.59121867 -0.5 3.375 C-1.75296875 4.03628906 -1.75296875 4.03628906 -3.03125 4.7109375 C-11.33932487 8.31839106 -19.05279243 8.27641054 -28 8.1875 C-29.23234375 8.18685547 -30.4646875 8.18621094 -31.734375 8.18554688 C-44.59709065 8.12344149 -44.59709065 8.12344149 -50 7 C-50.66 6.01 -51.32 5.02 -52 4 C-51.44489746 4.06856201 -50.88979492 4.13712402 -50.31787109 4.20776367 C-42.75354392 5.0603725 -35.23285038 5.25343284 -27.625 5.3125 C-26.3875 5.34150391 -25.15 5.37050781 -23.875 5.40039062 C-15.58629984 5.45710278 -8.63160776 4.32311552 -1 1 C-0.67 0.67 -0.34 0.34 0 0 Z " fill="#4DACD7" transform="translate(236,318)"/>
<path d="M0 0 C0.33 0 0.66 0 1 0 C1 35.31 1 70.62 1 107 C-0.485 107.495 -0.485 107.495 -2 108 C-1.67 107.01 -1.34 106.02 -1 105 C-0.90015752 103.55349229 -0.85390741 102.10292903 -0.84178162 100.6530304 C-0.8319928 99.76542023 -0.82220398 98.87781006 -0.81211853 97.96330261 C-0.80636307 96.99226089 -0.8006076 96.02121918 -0.79467773 95.02075195 C-0.78477814 93.99618896 -0.77487854 92.97162598 -0.76467896 91.91601562 C-0.73304663 88.52346115 -0.70829959 85.13089266 -0.68359375 81.73828125 C-0.66302573 79.38843925 -0.6420293 77.03860097 -0.62062073 74.68876648 C-0.56538443 68.49920658 -0.51598198 62.30961321 -0.46777344 56.11999512 C-0.41756982 49.80587784 -0.3618778 43.49180927 -0.30664062 37.17773438 C-0.19903998 24.78519784 -0.0975992 12.39261905 0 0 Z " fill="#7DC2DF" transform="translate(507,234)"/>
<path d="M0 0 C0.99 0 1.98 0 3 0 C3.02895225 3.29164829 3.0467823 6.58326399 3.0625 9.875 C3.07087891 10.81214844 3.07925781 11.74929687 3.08789062 12.71484375 C3.09111328 13.61074219 3.09433594 14.50664063 3.09765625 15.4296875 C3.10289307 16.25710449 3.10812988 17.08452148 3.11352539 17.93701172 C3 20 3 20 2 22 C1.88177029 23.54142175 1.82300189 25.08761097 1.79467773 26.63330078 C1.77473251 27.59414581 1.75478729 28.55499084 1.73423767 29.54495239 C1.71752518 30.58457123 1.70081268 31.62419006 1.68359375 32.6953125 C1.6524221 34.28918289 1.6524221 34.28918289 1.62062073 35.91525269 C1.55509739 39.31843438 1.49622727 42.72169489 1.4375 46.125 C1.39431743 48.42839366 1.35070323 50.73177926 1.30664062 53.03515625 C1.19941318 58.69002021 1.09765198 64.34496303 1 70 C0.67 70 0.34 70 0 70 C0 46.9 0 23.8 0 0 Z " fill="#5AB030" transform="translate(786,96)"/>
<path d="M0 0 C1.69141656 0.08963062 3.37959602 0.24577676 5.0625 0.4375 C6.44115234 0.59025391 6.44115234 0.59025391 7.84765625 0.74609375 C8.55792969 0.82988281 9.26820312 0.91367188 10 1 C10 1.33 10 1.66 10 2 C5.545 2.495 5.545 2.495 1 3 C0.67 11.91 0.34 20.82 0 30 C2.97 30 5.94 30 9 30 C11.80266204 30.54109501 14.45026876 31.1219276 17.1875 31.875 C17.85974609 32.04902344 18.53199219 32.22304687 19.22460938 32.40234375 C23.20542041 33.44890556 27.11000715 34.65695426 31 36 C29.29296875 37.109375 29.29296875 37.109375 27 38 C24.80078125 37.390625 24.80078125 37.390625 22.3125 36.25 C14.77892229 33.22019157 7.01778739 32.71436324 -1 32 C-1.02465504 27.60343827 -1.04283842 23.2069128 -1.05493164 18.81030273 C-1.05997121 17.31355082 -1.06680287 15.81680384 -1.07543945 14.32006836 C-1.08752159 12.17300193 -1.09323191 10.02600038 -1.09765625 7.87890625 C-1.10289307 6.5854126 -1.10812988 5.29191895 -1.11352539 3.95922852 C-1 1 -1 1 0 0 Z " fill="#80AB49" transform="translate(1122,114)"/>
<path d="M0 0 C3.39012875 2.61964494 4.35397042 5.91843214 5 10 C5.2243893 13.98398195 5.18937203 17.94890976 5.125 21.9375 C5.11597656 23.00291016 5.10695313 24.06832031 5.09765625 25.16601562 C5.07423414 27.77758034 5.04143452 30.38866937 5 33 C-7.48519362 39.88838269 -7.48519362 39.88838269 -14 39 C-10.83724506 36.89149671 -7.86528462 35.71169124 -4.3125 34.375 C-3.13300781 33.92898438 -1.95351562 33.48296875 -0.73828125 33.0234375 C0.16535156 32.68570313 1.06898437 32.34796875 2 32 C2.30927478 15.89490018 2.30927478 15.89490018 0 0 Z " fill="#94BA6B" transform="translate(1069,325)"/>
<path d="M0 0 C0.66 0 1.32 0 2 0 C2 9.9 2 19.8 2 30 C4.31 29.34 6.62 28.68 9 28 C11.3060317 27.72930303 13.62006375 27.51834657 15.9375 27.375 C17.65259766 27.26285156 17.65259766 27.26285156 19.40234375 27.1484375 C20.25957031 27.09945313 21.11679687 27.05046875 22 27 C22 26.34 22 25.68 22 25 C23.65 25 25.3 25 27 25 C23.64281196 27.96662408 20.60232057 28.78947752 16.25 29.6875 C15.07953125 29.93886719 13.9090625 30.19023437 12.703125 30.44921875 C9 31 9 31 1 31 C0.67 22.75 0.34 14.5 0 6 C-0.66 6 -1.32 6 -2 6 C-3.50660662 7.56247728 -3.50660662 7.56247728 -5 9.5 C-6.5625 11.46875 -6.5625 11.46875 -8 13 C-8.66 13 -9.32 13 -10 13 C-10 12.01 -10 11.02 -10 10 C-9.34 10 -8.68 10 -8 10 C-8 9.34 -8 8.68 -8 8 C-6.50390625 6.5625 -6.50390625 6.5625 -4.5625 5 C-1.84811762 2.85474956 -1.84811762 2.85474956 0 0 Z " fill="#53B5D4" transform="translate(661,333)"/>
<path d="M0 0 C0.66 0.33 1.32 0.66 2 1 C0.74896484 2.18142578 0.74896484 2.18142578 -0.52734375 3.38671875 C-8.14174745 10.70494371 -14.38049164 18.00878662 -20 27 C-20.63679687 28.010625 -21.27359375 29.02125 -21.9296875 30.0625 C-26.00565578 36.77997562 -29.18040496 43.67165161 -32 51 C-32.99 51 -33.98 51 -35 51 C-34.401875 49.845 -33.80375 48.69 -33.1875 47.5 C-31.74149725 44.62836074 -30.50848259 41.78065287 -29.4375 38.75 C-28.33701751 35.70296516 -27.04536903 33.53625759 -25 31 C-24.401875 29.9275 -23.80375 28.855 -23.1875 27.75 C-20.81960065 23.54139398 -17.96795386 19.80034552 -15 16 C-14.36707031 15.16855469 -13.73414063 14.33710938 -13.08203125 13.48046875 C-9.09647571 8.33856247 -5.10258551 4.03954686 0 0 Z " fill="#6FB959" transform="translate(836,183)"/>
<path d="M0 0 C13.97758657 -1.06608711 28.56634012 2.77642128 40 11 C41.3515625 13.21875 41.3515625 13.21875 42 15 C40.53240234 14.18595703 40.53240234 14.18595703 39.03515625 13.35546875 C26.19853739 6.30862122 15.54894157 3.41981634 1 2 C1.680625 3.11375 2.36125 4.2275 3.0625 5.375 C4.22265625 7.2734375 4.22265625 7.2734375 5 9 C4.67 9.66 4.34 10.32 4 11 C1.29727467 8.12835434 0.05208163 6.69008159 -0.25 2.6875 C-0.1675 1.800625 -0.085 0.91375 0 0 Z " fill="#70BF50" transform="translate(800,263)"/>
<path d="M0 0 C4.03944581 1.38495285 6.70033698 3.32884422 10 6 C20.84189132 12.42872778 31.28386087 17.8396819 44 19 C43.01 18.01 42.02 17.02 41 16 C42.98 16.66 44.96 17.32 47 18 C46.67 19.32 46.34 20.64 46 22 C32.29645646 21.16100754 20.40490776 15.14204395 9 8 C8.05125 7.41347656 7.1025 6.82695312 6.125 6.22265625 C1.60938242 3.33689439 1.60938242 3.33689439 0 2 C0 1.34 0 0.68 0 0 Z " fill="#72B947" transform="translate(845,335)"/>
<path d="M0 0 C1.90234375 0.16796875 1.90234375 0.16796875 4 1 C5.37890625 2.92578125 5.37890625 2.92578125 6.5625 5.3125 C7.80576914 7.77865681 8.97521782 9.96748438 10.65234375 12.16796875 C12 14 12 14 12 16 C12.66 16 13.32 16 14 16 C15.38442 17.96498322 16.71203834 19.97048465 18 22 C18.98866506 23.34175973 19.9838154 24.67896002 21 26 C20.67 26.66 20.34 27.32 20 28 C13.71833674 20.61322931 8.2685643 13.14232664 3 5 C3 9.95 3 14.9 3 20 C0.5754498 16.3631747 0.29204986 13.10544762 -0.1875 8.875 C-0.28224609 8.13378906 -0.37699219 7.39257812 -0.47460938 6.62890625 C-0.69866138 4.75781545 -0.85498657 2.87886966 -1 1 C-0.67 0.67 -0.34 0.34 0 0 Z " fill="#6DBC4D" transform="translate(796,279)"/>
<path d="M0 0 C12.91163764 1.6422697 24.3345046 11.2325458 32.4609375 20.9765625 C39 29.57360406 39 29.57360406 39 33 C38.34 33 37.68 33 37 33 C35.6328125 31.2421875 35.6328125 31.2421875 34.125 28.875 C33.58875 28.05128906 33.0525 27.22757813 32.5 26.37890625 C31.3426591 24.54343592 30.22517401 22.68279581 29.125 20.8125 C26.76420182 17.68791418 24.27850989 15.7308002 21.09765625 13.4921875 C19 12 19 12 16.703125 10.0546875 C13.53119209 7.64365179 10.26678409 5.96776147 6.6875 4.25 C6.04232422 3.93417969 5.39714844 3.61835938 4.73242188 3.29296875 C3.15765541 2.52308292 1.5791996 1.76075109 0 1 C0 0.67 0 0.34 0 0 Z " fill="#59B5C8" transform="translate(662,171)"/>
<path d="M0 0 C0 0.66 0 1.32 0 2 C-0.79059814 2.01981934 -1.58119629 2.03963867 -2.39575195 2.06005859 C-6.03495922 2.15628188 -9.67366711 2.26556142 -13.3125 2.375 C-14.55580078 2.4059375 -15.79910156 2.436875 -17.08007812 2.46875 C-23.74901434 2.67879524 -30.0945175 3.16970526 -36.62182617 4.58447266 C-39.12595141 5.02200691 -41.46310844 5.06944201 -44 5 C-43.67 4.34 -43.34 3.68 -43 3 C-29.21056198 -1.43377211 -14.27217667 -0.30542959 0 0 Z " fill="#58B9DD" transform="translate(619,247)"/>
<path d="M0 0 C1.17369141 -0.00386719 1.17369141 -0.00386719 2.37109375 -0.0078125 C4.5625 0.125 4.5625 0.125 7.5625 1.125 C9.5545303 1.20791953 11.54923713 1.23238177 13.54296875 1.22265625 C15.28803711 1.21782227 15.28803711 1.21782227 17.06835938 1.21289062 C18.89077148 1.20032227 18.89077148 1.20032227 20.75 1.1875 C22.58981445 1.18073242 22.58981445 1.18073242 24.46679688 1.17382812 C27.49874668 1.16203065 30.53059906 1.14556921 33.5625 1.125 C33.5625 1.785 33.5625 2.445 33.5625 3.125 C20.3625 3.125 7.1625 3.125 -6.4375 3.125 C-6.4375 2.465 -6.4375 1.805 -6.4375 1.125 C-4.08479407 -0.05135297 -2.616748 -0.00859359 0 0 Z " fill="#98BE69" transform="translate(1038.4375,205.875)"/>
<path d="M0 0 C8.82004104 4.92884646 13.89399505 10.19100156 17 20 C18.31477316 28.88887312 17.60466424 37.73931113 14 46 C12.9244767 42.77343011 13.05283824 42.16748933 13.9375 39.0625 C15.88607398 30.79785866 16.21449732 22.73513 12.27734375 15.04296875 C9.55230273 10.68456981 6.98355152 6.66118384 2 5 C0.8125 2.4375 0.8125 2.4375 0 0 Z " fill="#4FB0DC" transform="translate(257,112)"/>
<path d="M0 0 C2.36489144 3.05705479 4.43031272 6.23761158 6.5 9.5 C11.5901745 17.17760146 17.55163745 24.51493803 24.83203125 30.21875 C25.54746094 30.8065625 26.26289062 31.394375 27 32 C27 32.66 27 33.32 27 34 C15.71136449 29.22403882 5.13329872 14.81172652 0 4 C0 2.68 0 1.36 0 0 Z " fill="#68C252" transform="translate(806,318)"/>
<path d="M0 0 C1.134375 0.598125 2.26875 1.19625 3.4375 1.8125 C11.14382477 5.64548876 19.40417268 7.72574523 27.66796875 10.03515625 C30.8097203 10.94490142 33.904985 11.94328016 37 13 C37 13.66 37 14.32 37 15 C28.20791928 13.45259379 20.21828384 11.59066262 12 8 C10.9275 7.649375 9.855 7.29875 8.75 6.9375 C5.67155785 5.88803108 2.87807763 4.50756447 0 3 C0 2.01 0 1.02 0 0 Z " fill="#4EAFDD" transform="translate(171,195)"/>
<path d="M0 0 C1.98 0.99 1.98 0.99 4 2 C4 13.22 4 24.44 4 36 C3.34 36 2.68 36 2 36 C1.97494385 35.01604248 1.9498877 34.03208496 1.92407227 33.01831055 C1.8298918 29.36729943 1.7296971 25.71647384 1.62768555 22.06567383 C1.58437695 20.48563985 1.54269894 18.90556031 1.50268555 17.32543945 C1.44488417 15.05405952 1.3812184 12.78290811 1.31640625 10.51171875 C1.29969376 9.80536789 1.28298126 9.09901703 1.26576233 8.3712616 C1.1740253 5.3335176 0.96792314 2.90376942 0 0 Z " fill="#97BD6A" transform="translate(1023,129)"/>
<path d="M0 0 C0 3 0 3 -2.1875 5.375 C-3.115625 6.24125 -4.04375 7.1075 -5 8 C-5.825 8.86625 -6.65 9.7325 -7.5 10.625 C-10 13 -10 13 -12.375 14.3125 C-16.32235246 16.85008372 -19.03381128 20.4012523 -22 24 C-22.33 23.01 -22.66 22.02 -23 21 C-21.625 19.5 -21.625 19.5 -20 18 C-19.34 18 -18.68 18 -18 18 C-17.773125 17.278125 -17.54625 16.55625 -17.3125 15.8125 C-14.80383025 10.43677911 -11.36573806 8.08667591 -6 6 C-5.67 5.01 -5.34 4.02 -5 3 C-2.4375 1.3125 -2.4375 1.3125 0 0 Z " fill="#78B365" transform="translate(875,188)"/>
<path d="M0 0 C1.85625 0.0309375 1.85625 0.0309375 3.75 0.0625 C3.75 0.3925 3.75 0.7225 3.75 1.0625 C2.739375 1.165625 1.72875 1.26875 0.6875 1.375 C-2.35664864 1.90651802 -4.23601485 2.38535746 -6.9375 3.625 C-10.25 5.0625 -10.25 5.0625 -14.25 5.0625 C-14.25 5.7225 -14.25 6.3825 -14.25 7.0625 C-14.86488281 7.37703125 -15.47976563 7.6915625 -16.11328125 8.015625 C-16.92152344 8.44359375 -17.72976563 8.8715625 -18.5625 9.3125 C-19.36300781 9.73015625 -20.16351563 10.1478125 -20.98828125 10.578125 C-23.38454691 12.15080367 -24.58007166 13.77063353 -26.25 16.0625 C-26.91 16.0625 -27.57 16.0625 -28.25 16.0625 C-26.84257936 12.54394841 -25.58533477 11.67637166 -22.25 10.0625 C-21.92 9.0725 -21.59 8.0825 -21.25 7.0625 C-18.44921875 5.4921875 -18.44921875 5.4921875 -14.9375 3.9375 C-13.78636719 3.41929688 -12.63523437 2.90109375 -11.44921875 2.3671875 C-7.43271188 0.72919813 -4.32383806 -0.07206397 0 0 Z " fill="#75BBE4" transform="translate(365.25,93.9375)"/>
<path d="M0 0 C3.54896247 3.48524681 6.88429736 7.08968817 10.1875 10.8125 C14.48276166 15.59913428 19.00663066 19.64874484 24.19921875 23.4765625 C24.79347656 23.97929687 25.38773438 24.48203125 26 25 C26 25.66 26 26.32 26 27 C15.21299709 22.08379956 6.53809353 10.8572599 -1 2 C-0.67 1.34 -0.34 0.68 0 0 Z " fill="#73BC5C" transform="translate(818,307)"/>
<path d="M0 0 C0.66 0.33 1.32 0.66 2 1 C1.41734375 1.72960937 0.8346875 2.45921875 0.234375 3.2109375 C-7.05362051 12.45413875 -13.57347591 22.14388861 -20 32 C-20.33 31.01 -20.66 30.02 -21 29 C-15.89971005 19.23658782 -7.81854553 7.81854553 0 0 Z " fill="#77B75B" transform="translate(850,213)"/>
<path d="M0 0 C0.66 0 1.32 0 2 0 C1.67 1.32 1.34 2.64 1 4 C9.91422072 8.22573032 18.84977898 12.30242465 28 16 C28 16.33 28 16.66 28 17 C23.08945133 16.59078761 19.70259925 15.51001928 15.390625 13.17578125 C11.32347193 11.17543309 7.02654758 9.75649305 2.7578125 8.24609375 C0 7 0 7 -2 4 C-1.34 2.68 -0.68 1.36 0 0 Z " fill="#73B753" transform="translate(825,248)"/>
<path d="M0 0 C0.33 0 0.66 0 1 0 C1 10.56 1 21.12 1 32 C-2.17483445 27.7668874 -2.36878745 27.09411312 -2.29296875 22.140625 C-2.28330078 21.02558594 -2.27363281 19.91054687 -2.26367188 18.76171875 C-2.23853516 17.60285156 -2.21339844 16.44398438 -2.1875 15.25 C-2.17396484 14.07566406 -2.16042969 12.90132812 -2.14648438 11.69140625 C-2.1111478 8.79380702 -2.06180979 5.89713573 -2 3 C-1.34 3 -0.68 3 0 3 C0 2.01 0 1.02 0 0 Z " fill="#42A5D3" transform="translate(111,162)"/>
<path d="M0 0 C0 0.66 0 1.32 0 2 C-0.83023682 2.06731323 -0.83023682 2.06731323 -1.67724609 2.13598633 C-15.0889874 3.05260333 -15.0889874 3.05260333 -28.02734375 6.4140625 C-30.41264172 7.12256685 -32.52542795 7.09467928 -35 7 C-26.23839112 -0.52195679 -11.01202879 -0.1012135 0 0 Z " fill="#69B959" transform="translate(788,93)"/>
<path d="M0 0 C3.09128915 1.03042972 5.2633337 2.2003626 7.875 4.1875 C11.52764785 6.89674874 15.45582737 8.77787228 19.5625 10.6875 C20.19978027 10.98487061 20.83706055 11.28224121 21.49365234 11.58862305 C25.26418403 13.30982535 29.04508471 14.76294637 33 16 C33 16.33 33 16.66 33 17 C26.72867651 16.55204832 22.46277344 15.0246514 17 12 C16.071875 11.566875 15.14375 11.13375 14.1875 10.6875 C9.2932655 8.09643468 4.4581696 5.29206474 0 2 C0 1.34 0 0.68 0 0 Z " fill="#71BA5A" transform="translate(835,353)"/>
<path d="M0 0 C16.19550167 1.6891014 16.19550167 1.6891014 23.16015625 4.3359375 C25.72119161 5.2603027 28.30742005 5.65479744 31 6 C31 6.66 31 7.32 31 8 C22.95433699 6.86398446 15.02762876 5.43960132 7.09375 3.68359375 C4.4012977 3.08867058 1.70584333 2.53006259 -1 2 C-0.67 1.34 -0.34 0.68 0 0 Z " fill="#55B8DB" transform="translate(621,247)"/>
<path d="M0 0 C-0.7734375 0.31453125 -1.546875 0.6290625 -2.34375 0.953125 C-5.57237591 2.27973862 -8.78862061 3.63219026 -12 5 C-12.73476563 5.31066406 -13.46953125 5.62132812 -14.2265625 5.94140625 C-20.18810485 8.67684646 -25.01345261 12.79004606 -30 17 C-30 14 -30 14 -28.234375 12.16796875 C-9.14603616 -3.04867872 -9.14603616 -3.04867872 0 0 Z " fill="#5EB5E5" transform="translate(574,253)"/>
<path d="M0 0 C6.28008218 -0.56072162 11.46353268 0.4493788 17.4375 2.25 C18.14777344 2.45455811 18.85804688 2.65911621 19.58984375 2.86987305 C21.62109375 3.515625 21.62109375 3.515625 25 5 C25.66 6.32 26.32 7.64 27 9 C23.7 8.01 20.4 7.02 17 6 C17 5.34 17 4.68 17 4 C16.443125 3.95101562 15.88625 3.90203125 15.3125 3.8515625 C10.03432735 3.33444423 5.11637635 2.39537537 0 1 C0 0.67 0 0.34 0 0 Z " fill="#50B2DD" transform="translate(225,103)"/>
<path d="M0 0 C0.77601562 0.17015625 1.55203125 0.3403125 2.3515625 0.515625 C6.64432752 1.51189811 10.08060706 2.69610251 13.75 5.25 C10.0504219 6.4831927 9.1818625 5.83943884 5.625 4.4375 C-2.17786582 1.66719506 -10.05637286 0.98781477 -18.25 0.25 C-18.25 -0.08 -18.25 -0.41 -18.25 -0.75 C-11.63391895 -1.77799666 -6.48007829 -1.58157843 0 0 Z " fill="#92B243" transform="translate(1141.25,116.75)"/>
<path d="M0 0 C0.91201172 0.00193359 1.82402344 0.00386719 2.76367188 0.00585938 C4.18196289 0.02422852 4.18196289 0.02422852 5.62890625 0.04296875 C7.04139648 0.04393555 7.04139648 0.04393555 8.48242188 0.04492188 C12.87531113 0.07282308 16.88941237 0.26941051 21.19140625 1.23046875 C21.19140625 1.56046875 21.19140625 1.89046875 21.19140625 2.23046875 C17.31686448 2.42836925 13.44177005 2.61193965 9.56640625 2.79296875 C8.47199219 2.84904297 7.37757813 2.90511719 6.25 2.96289062 C5.18652344 3.01123047 4.12304688 3.05957031 3.02734375 3.109375 C2.0532959 3.15650635 1.07924805 3.2036377 0.07568359 3.25219727 C-2.98359182 3.22915041 -5.80849385 2.808309 -8.80859375 2.23046875 C-5.74057015 0.45118254 -3.53245624 -0.01755044 0 0 Z " fill="#39A5D6" transform="translate(191.80859375,141.76953125)"/>
<path d="M0 0 C4.46111516 1.26810125 7.54350634 2.87657338 11.125 5.8125 C11.95257813 6.47894531 12.78015625 7.14539063 13.6328125 7.83203125 C16.05417576 10.04961641 18.02022137 12.3861448 20 15 C16.53585166 14.40986854 14.79632137 13.19573054 12.25 10.8125 C8.81050986 7.67687459 5.24552809 4.88043751 1.46875 2.1640625 C0.9840625 1.77992188 0.499375 1.39578125 0 1 C0 0.67 0 0.34 0 0 Z " fill="#78C4E5" transform="translate(475,170)"/>
<path d="M0 0 C0.66 0 1.32 0 2 0 C1 3 1 3 -0.50390625 4.0625 C-8.02709072 7.48861816 -15.89730994 8.68766247 -24 10 C-24 9.34 -24 8.68 -24 8 C-20.7246912 6.3623456 -17.85134007 5.83175907 -14.25 5.5625 C-9.16938526 5.15055826 -4.74097594 3.8208096 0 2 C0 1.34 0 0.68 0 0 Z " fill="#51ADD7" transform="translate(631,358)"/>
<path d="M0 0 C7.94848092 0.15585257 14.49548388 3.55002651 21 8 C22.3828125 10.23046875 22.3828125 10.23046875 23 12 C22.01 11.45730469 21.02 10.91460937 20 10.35546875 C10.28040288 5.05951278 10.28040288 5.05951278 0 1 C0 0.67 0 0.34 0 0 Z " fill="#79BB58" transform="translate(819,266)"/>
<path d="M0 0 C-1.6029053 0.81498562 -3.20737278 1.62689927 -4.8125 2.4375 C-5.70582031 2.88996094 -6.59914062 3.34242188 -7.51953125 3.80859375 C-11.62755638 5.78173968 -14.66939564 6.11108177 -19.1875 6.0625 C-20.81751953 6.04896484 -20.81751953 6.04896484 -22.48046875 6.03515625 C-23.31191406 6.02355469 -24.14335937 6.01195312 -25 6 C-25 5.67 -25 5.34 -25 5 C-23.85724609 4.85304688 -23.85724609 4.85304688 -22.69140625 4.703125 C-16.55566793 3.81455366 -11.4190415 2.64505444 -5.9375 -0.29296875 C-3.56767078 -1.1577653 -2.34309138 -0.821128 0 0 Z " fill="#4EB5DE" transform="translate(240,319)"/>
<path d="M0 0 C6.68617237 2.77231537 12.01784601 7.34862712 15 14 C14.01 14.33 13.02 14.66 12 15 C11.60167969 14.26136719 11.20335937 13.52273437 10.79296875 12.76171875 C8.90511932 9.85385482 6.96739905 8.02277828 4.3125 5.8125 C2.83908906 4.58348258 1.39127749 3.32127611 0 2 C0 1.34 0 0.68 0 0 Z " fill="#72C6E7" transform="translate(440,211)"/>
<path d="M0 0 C0.66 0.66 1.32 1.32 2 2 C-0.87810729 5.99622092 -3.68347035 8.35020541 -7.9375 10.8125 C-8.95714844 11.41707031 -9.97679687 12.02164062 -11.02734375 12.64453125 C-14.0133372 14.00608148 -15.77236942 14.30314762 -19 14 C-17 12 -17 12 -13.875 10.75 C-8.30408021 8.46090088 -3.34808552 5.02212829 0 0 Z " fill="#6AB85F" transform="translate(784,345)"/>
<path d="M0 0 C0.33 0 0.66 0 1 0 C1.33 4.95 1.66 9.9 2 15 C-2.3093986 14.2817669 -5.16324035 13.69268808 -9 12 C-9 11.67 -9 11.34 -9 11 C-6.36 11 -3.72 11 -1 11 C-0.67 7.37 -0.34 3.74 0 0 Z " fill="#54B6D9" transform="translate(662,244)"/>
<path d="M0 0 C2.41802195 0.28270406 4.8340122 0.57579264 7.25 0.875 C7.93191406 0.95363281 8.61382813 1.03226563 9.31640625 1.11328125 C12.90696311 1.56645833 15.892507 2.09385738 19 4 C19 4.66 19 5.32 19 6 C18.01 6.33 17.02 6.66 16 7 C16 6.01 16 5.02 16 4 C15.18015625 3.93941406 14.3603125 3.87882813 13.515625 3.81640625 C12.43796875 3.73261719 11.3603125 3.64882812 10.25 3.5625 C9.18265625 3.48128906 8.1153125 3.40007812 7.015625 3.31640625 C4.56320038 3.05909227 2.36078709 2.68187782 0 2 C0 1.34 0 0.68 0 0 Z " fill="#87BA7E" transform="translate(915,159)"/>
<path d="M0 0 C1.9375 0.375 1.9375 0.375 4 1 C5.44891816 3.89783633 5.42971811 6.65440027 5.6875 9.875 C5.79449219 11.10992187 5.90148437 12.34484375 6.01171875 13.6171875 C6.00051498 16.85134138 5.74143991 18.34447095 4 21 C3.96261719 20.07058594 3.92523438 19.14117187 3.88671875 18.18359375 C3.3870535 8.70760996 3.3870535 8.70760996 0 0 Z " fill="#4DAEDE" transform="translate(248,280)"/>
<path d="M0 0 C2.47386521 2.92549728 3.45765092 5.10496983 4.0625 8.875 C4.74147265 12.73202108 5.64186193 16.31362524 7 20 C3.66662611 17.07296714 2.32161373 14.85490834 1.25 10.5625 C1.00765625 9.63566406 0.7653125 8.70882813 0.515625 7.75390625 C0.01771557 5.09461724 -0.09791336 2.69751308 0 0 Z " fill="#5FC0E6" transform="translate(530,319)"/>
<path d="M0 0 C4.72502701 0.63242669 8.90570197 1.91813563 13.375 3.5625 C14.01566406 3.79646484 14.65632812 4.03042969 15.31640625 4.27148438 C16.8793161 4.84299619 18.43990727 5.42084229 20 6 C19.34 6.66 18.68 7.32 18 8 C11.79522136 6.06375702 5.89174281 3.74390859 0 1 C0 0.67 0 0.34 0 0 Z " fill="#75BD5A" transform="translate(935,353)"/>
<path d="M0 0 C4.03944581 1.38495285 6.70033698 3.32884422 10 6 C11.23892141 6.72753683 12.48947527 7.43557015 13.75 8.125 C17 10 17 10 18 12 C12.53518188 10.70570097 8.63366592 7.81029289 4.171875 4.55859375 C2.09572282 2.98196832 2.09572282 2.98196832 0 2 C0 1.34 0 0.68 0 0 Z " fill="#76BA55" transform="translate(845,335)"/>
<path d="M0 0 C7.17659511 1.05054214 13.24834617 5.62856523 18 11 C17.67 11.66 17.34 12.32 17 13 C16.52691406 12.55269531 16.05382813 12.10539063 15.56640625 11.64453125 C10.73275256 7.22545994 5.84733207 3.93720153 0 1 C0 0.67 0 0.34 0 0 Z " fill="#85A64A" transform="translate(1152,152)"/>
<path d="M0 0 C1 3 1 3 -0.43359375 6.35546875 C-1.09148807 7.6380304 -1.75989743 8.91524057 -2.4375 10.1875 C-2.77587891 10.84169922 -3.11425781 11.49589844 -3.46289062 12.16992188 C-4.29969098 13.78459299 -5.14869746 15.39292763 -6 17 C-7.23306978 14.07323092 -7.01493635 13.03773655 -5.8203125 10.01953125 C-5.26085937 8.96121094 -4.70140625 7.90289062 -4.125 6.8125 C-3.57070313 5.74644531 -3.01640625 4.68039063 -2.4453125 3.58203125 C-1 1 -1 1 0 0 Z " fill="#70B94F" transform="translate(861,246)"/>
<path d="M0 0 C5.2584002 0.67415387 10.02638346 2.24265549 15 4 C15 4.66 15 5.32 15 6 C13.24871182 5.71617054 11.49899997 5.42260471 9.75 5.125 C8.28820312 4.88136719 8.28820312 4.88136719 6.796875 4.6328125 C4.22735883 4.05144152 2.27928944 3.29159735 0 2 C0 1.34 0 0.68 0 0 Z " fill="#4DB0DA" transform="translate(228,214)"/>
<path d="M0 0 C0.33 0.66 0.66 1.32 1 2 C0.0390625 4.42578125 0.0390625 4.42578125 -1.375 7.3125 C-3.12514068 10.8958886 -4.38144131 14.05129394 -5 18 C-5.33 18 -5.66 18 -6 18 C-5.5623733 11.34505598 -4.93786695 4.93786695 0 0 Z " fill="#71BAE4" transform="translate(336,110)"/>
<path d="M0 0 C0.43570313 0.37511719 0.87140625 0.75023437 1.3203125 1.13671875 C1.91585937 1.64847656 2.51140625 2.16023438 3.125 2.6875 C4.07439453 3.50541016 4.07439453 3.50541016 5.04296875 4.33984375 C6.81640213 5.8442533 8.62132079 7.29792354 10.4375 8.75 C11.283125 9.4925 12.12875 10.235 13 11 C13 11.66 13 12.32 13 13 C7.70502537 10.75981843 3.03642585 6.89201943 0 2 C0 1.34 0 0.68 0 0 Z " fill="#71BD5D" transform="translate(820,339)"/>
<path d="M0 0 C0.96099609 0.61488281 0.96099609 0.61488281 1.94140625 1.2421875 C6.91124762 4.33815426 11.26713518 6.75372504 17 8 C17 8.33 17 8.66 17 9 C9.53811904 10.16073704 4.90952207 6.18902831 -1 2 C-0.67 1.34 -0.34 0.68 0 0 Z " fill="#5BAE4E" transform="translate(1130,350)"/>
<path d="M0 0 C0 3 0 3 -2.1875 5.375 C-3.115625 6.24125 -4.04375 7.1075 -5 8 C-5.928125 8.928125 -6.85625 9.85625 -7.8125 10.8125 C-8.534375 11.534375 -9.25625 12.25625 -10 13 C-10.66 12.67 -11.32 12.34 -12 12 C-11.21625 11.2575 -10.4325 10.515 -9.625 9.75 C-6.99952604 7.29017437 -6.99952604 7.29017437 -6 4.875 C-4.59166894 2.23437926 -2.59618859 1.36641504 0 0 Z " fill="#6EB644" transform="translate(875,188)"/>
<path d="M0 0 C3.52238047 1.56367357 6.27123994 3.69495889 9.25 6.125 C10.14203125 6.84945313 11.0340625 7.57390625 11.953125 8.3203125 C12.62859375 8.87460937 13.3040625 9.42890625 14 10 C9.99721935 10 8.51202411 8.47550007 5.3125 6.125 C4.31863281 5.40570313 3.32476563 4.68640625 2.30078125 3.9453125 C1.54152344 3.30335938 0.78226563 2.66140625 0 2 C0 1.34 0 0.68 0 0 Z " fill="#71B952" transform="translate(858,330)"/>
<path d="M0 0 C0.33 0.66 0.66 1.32 1 2 C-1.02652718 7.69960771 -4.09260084 9.85185714 -9 13 C-9 12.01 -9 11.02 -9 10 C-7.33784732 8.66104368 -5.67036393 7.32869858 -4 6 C-2.60644236 4.04148656 -1.25717453 2.04872887 0 0 Z " fill="#4BB8E4" transform="translate(250,305)"/>
<path d="M0 0 C3.16168368 1.43130275 5.62274483 3.17514138 8.25 5.4375 C8.95640625 6.03433594 9.6628125 6.63117188 10.390625 7.24609375 C12 9 12 9 12 12 C10.37133456 10.56665422 8.74719006 9.12817021 7.125 7.6875 C6.22007812 6.88699219 5.31515625 6.08648437 4.3828125 5.26171875 C2 3 2 3 0 0 Z " fill="#76B151" transform="translate(867,298)"/>
<path d="M0 0 C3.9520518 0.58172725 6.22095053 2.55157741 9.25 5.0625 C10.14203125 5.79597656 11.0340625 6.52945312 11.953125 7.28515625 C12.62859375 7.85105469 13.3040625 8.41695313 14 9 C13.67 9.66 13.34 10.32 13 11 C10.83040701 9.35790421 8.66427468 7.71157832 6.5 6.0625 C5.87996094 5.59392578 5.25992188 5.12535156 4.62109375 4.64257812 C3.06233214 3.45209536 1.52890836 2.22858708 0 1 C0 0.67 0 0.34 0 0 Z " fill="#78BC52" transform="translate(843,278)"/>
<path d="M0 0 C0 3.84947814 -1.31151243 5.46593267 -3.375 8.6875 C-4.00148438 9.68136719 -4.62796875 10.67523438 -5.2734375 11.69921875 C-6.12808594 12.83810547 -6.12808594 12.83810547 -7 14 C-7.66 14 -8.32 14 -9 14 C-7.65070536 10.16336928 -5.92248975 7.34827431 -3.375 4.1875 C-2.42753906 3.00220703 -2.42753906 3.00220703 -1.4609375 1.79296875 C-0.97882812 1.20128906 -0.49671875 0.60960937 0 0 Z " fill="#70BB5C" transform="translate(885,208)"/>
<path d="M0 0 C4.29 1.65 8.58 3.3 13 5 C13 5.66 13 6.32 13 7 C7.06 5.515 7.06 5.515 1 4 C0.67 2.68 0.34 1.36 0 0 Z " fill="#54ACE1" transform="translate(248,220)"/>
<path d="M0 0 C3.23861303 1.44424635 5.61969163 3.25772247 8.25 5.625 C8.95640625 6.25664062 9.6628125 6.88828125 10.390625 7.5390625 C10.92171875 8.02117187 11.4528125 8.50328125 12 9 C11.01 9.33 10.02 9.66 9 10 C7.66666667 8.66666667 6.33333333 7.33333333 5 6 C4.0925 5.113125 3.185 4.22625 2.25 3.3125 C0 1 0 1 0 0 Z " fill="#6BBE4B" transform="translate(844,318)"/>
<path d="M0 0 C0 3 0 3 -2.25 5.5625 C-4.51797524 7.57275078 -6.23189141 8.87225206 -9 10 C-7.61811547 6.78956118 -6.07578097 4.95063635 -3.375 2.75 C-2.74335937 2.22921875 -2.11171875 1.7084375 -1.4609375 1.171875 C-0.73777344 0.59179688 -0.73777344 0.59179688 0 0 Z " fill="#6DB45B" transform="translate(907,184)"/>
<path d="M0 0 C4.08963819 2.28538605 7.46362104 4.95706926 11 8 C10.01 8.33 9.02 8.66 8 9 C7.566875 8.525625 7.13375 8.05125 6.6875 7.5625 C4.97690387 5.76313043 4.97690387 5.76313043 2 5 C0.8125 2.4375 0.8125 2.4375 0 0 Z " fill="#58A8E3" transform="translate(257,112)"/>
<path d="M0 0 C0.33 0.99 0.66 1.98 1 3 C-2.75 6 -2.75 6 -5 6 C-5 6.66 -5 7.32 -5 8 C-6.32 8 -7.64 8 -9 8 C-9 7.34 -9 6.68 -9 6 C-7.03125 4.4921875 -7.03125 4.4921875 -4.5 2.875 C-3.6646875 2.33617188 -2.829375 1.79734375 -1.96875 1.2421875 C-1.3190625 0.83226563 -0.669375 0.42234375 0 0 Z " fill="#47B5DB" transform="translate(145,112)"/>
<path d="M0 0 C-4.41880243 2.94586829 -6.67767339 3.0985616 -12 3 C-4.82142857 -1.78571429 -4.82142857 -1.78571429 0 0 Z " fill="#9ABE63" transform="translate(1067,361)"/>
<path d="M0 0 C0.99 0.33 1.98 0.66 3 1 C3.33 3.97 3.66 6.94 4 10 C3.01 10.495 3.01 10.495 2 11 C1.34 7.37 0.68 3.74 0 0 Z " fill="#72C6E7" transform="translate(504,208)"/>
<path d="M0 0 C0.99 0.33 1.98 0.66 3 1 C0.03 3.64 -2.94 6.28 -6 9 C-6.66 8.67 -7.32 8.34 -8 8 C-7 6 -7 6 -4.5625 4.5625 C-1.7644028 3.10335955 -1.7644028 3.10335955 0 0 Z " fill="#4FB2D3" transform="translate(648,346)"/>
<path d="M0 0 C0.33 0.99 0.66 1.98 1 3 C-0.21484375 4.82421875 -0.21484375 4.82421875 -1.9375 6.6875 C-2.50339844 7.31011719 -3.06929687 7.93273437 -3.65234375 8.57421875 C-4.09707031 9.04472656 -4.54179688 9.51523438 -5 10 C-5.33 9.01 -5.66 8.02 -6 7 C-4.625 5.5 -4.625 5.5 -3 4 C-2.34 4 -1.68 4 -1 4 C-0.67 2.68 -0.34 1.36 0 0 Z " fill="#67BC55" transform="translate(858,202)"/>
<path d="M0 0 C2 2 2 2 2.1953125 4.1640625 C2.16050781 5.38222656 2.16050781 5.38222656 2.125 6.625 C2.10695313 7.44226563 2.08890625 8.25953125 2.0703125 9.1015625 C2.04710937 9.72804687 2.02390625 10.35453125 2 11 C0.48046875 9.76171875 0.48046875 9.76171875 -1 8 C-1.10118893 5.21464152 -0.49854208 2.76464243 0 0 Z " fill="#32D119" transform="translate(787,159)"/>
<path d="M0 0 C0.53625 0.391875 1.0725 0.78375 1.625 1.1875 C-1.6921411 2.6091319 -4.81719804 3.57759109 -8.375 4.1875 C-8.375 3.5275 -8.375 2.8675 -8.375 2.1875 C-2.95961538 -1.0125 -2.95961538 -1.0125 0 0 Z " fill="#4FACD9" transform="translate(154.375,109.8125)"/>
<path d="M0 0 C0.66 0 1.32 0 2 0 C6 5.41176471 6 5.41176471 6 8 C2.83884224 6.63016497 2.0072908 6.0109362 0 3 C0 2.01 0 1.02 0 0 Z " fill="#98C16C" transform="translate(984,344)"/>
<path d="M0 0 C2.4375 0.875 2.4375 0.875 4.4375 4.875 C1.1375 3.885 -2.1625 2.895 -5.5625 1.875 C-2.5625 -0.125 -2.5625 -0.125 0 0 Z " fill="#4BADD6" transform="translate(247.5625,107.125)"/>
<path d="M0 0 C3.67420866 0.30618405 4.78135513 0.75771784 7.3125 3.5625 C8.1478125 4.7690625 8.1478125 4.7690625 9 6 C5 6 5 6 3.515625 4.6875 C2.34375 3.125 1.171875 1.5625 0 0 Z " fill="#66C142" transform="translate(908,336)"/>
<path d="M0 0 C2.09749995 2.35968744 2.96905704 3.54616994 3.1875 6.75 C3.0946875 7.86375 3.0946875 7.86375 3 9 C2.34 9 1.68 9 1 9 C0.67 6.03 0.34 3.06 0 0 Z " fill="#58B5DE" transform="translate(530,319)"/>
</svg>
